<?xml version="1.0" encoding="UTF-8" standalone="no"?>
<!-- Created with Inkscape (http://www.inkscape.org/) -->

<svg
   xmlns:dc="http://purl.org/dc/elements/1.1/"
   xmlns:cc="http://creativecommons.org/ns#"
   xmlns:rdf="http://www.w3.org/1999/02/22-rdf-syntax-ns#"
   xmlns:svg="http://www.w3.org/2000/svg"
   xmlns="http://www.w3.org/2000/svg"
   xmlns:sodipodi="http://sodipodi.sourceforge.net/DTD/sodipodi-0.dtd"
   xmlns:inkscape="http://www.inkscape.org/namespaces/inkscape"
   width="70.120033mm"
   height="99.907684mm"
   viewBox="0 0 70.120032 99.907687"
   version="1.1"
   id="svg8"
   inkscape:version="0.92.3 (2405546, 2018-03-11)"
   sodipodi:docname="logo.svg">
  <defs
     id="defs2" />
  <sodipodi:namedview
     id="base"
     pagecolor="#ffffff"
     bordercolor="#666666"
     borderopacity="1.0"
     inkscape:pageopacity="0.0"
     inkscape:pageshadow="2"
     inkscape:zoom="2.8"
     inkscape:cx="132.23786"
     inkscape:cy="73.592663"
     inkscape:document-units="mm"
     inkscape:current-layer="layer1"
     showgrid="false"
     showguides="false"
     inkscape:guide-bbox="true"
     inkscape:window-width="1912"
     inkscape:window-height="2067"
     inkscape:window-x="1920"
     inkscape:window-y="136"
     inkscape:window-maximized="0"
     fit-margin-top="0"
     fit-margin-left="0"
     fit-margin-right="0"
     fit-margin-bottom="0">
    <sodipodi:guide
       position="36.26432,114.29314"
       orientation="1,0"
       id="guide862"
       inkscape:locked="false" />
  </sodipodi:namedview>
  <metadata
     id="metadata5">
    <rdf:RDF>
      <cc:Work
         rdf:about="">
        <dc:format>image/svg+xml</dc:format>
        <dc:type
           rdf:resource="http://purl.org/dc/dcmitype/StillImage" />
        <dc:title></dc:title>
      </cc:Work>
    </rdf:RDF>
  </metadata>
  <g
     inkscape:label="Layer 1"
     inkscape:groupmode="layer"
     id="layer1"
     transform="translate(-64.29584,-69.706979)">
    <rect
       style="fill:#ffffff;fill-opacity:1;stroke:#f6911a;stroke-width:0.16306087;stroke-linecap:square;stroke-linejoin:miter;stroke-miterlimit:4;stroke-dasharray:none;stroke-dashoffset:0;stroke-opacity:1;paint-order:stroke fill markers"
       id="rect892"
       width="38.86396"
       height="52.580276"
       x="80.73793"
       y="109.25846" />
    <path
       style="fill:#000000;fill-opacity:1;stroke:none;stroke-width:0.26458332px;stroke-linecap:butt;stroke-linejoin:miter;stroke-opacity:1"
       d="m 92.8245,74.007252 c 0.586222,1.627935 0.509847,4.546665 1.165185,4.261905 0.778537,-0.338294 -0.104097,-6.077926 0.652259,-6.313726 3.156114,-0.983935 5.690976,-2.464561 7.622056,-2.222016 1.93108,0.242546 5.46677,1.655376 8.06166,2.744283 0.6528,0.274706 -2.28051,6.428925 -1.68507,6.799781 0.65705,0.409233 1.25911,-4.22313 3.03329,-4.409054 2.20105,-0.230658 6.86187,3.421619 4.81532,4.570904 -5.18828,2.913584 -3.76023,13.242591 -8.68853,15.629413 -0.45858,0.222097 -0.92804,0.337495 -1.40167,0.378828 -0.20589,0.01797 0.5678,-1.667142 0.32545,-2.017027 -0.10495,-0.151514 -1.31353,2.009581 -1.49772,1.987001 -1.67442,-0.205263 -3.33255,-0.995255 -4.68328,-0.949332 -0.756633,0.02573 -1.151249,0.18028 -1.958655,0.584559 -0.32922,0.164845 -1.601825,-1.888864 -1.933167,-1.734438 -0.269484,0.125597 0.602797,2.414574 0.334105,2.507793 -0.700647,0.24308 -1.996609,0.60449 -2.667714,0.34701 -4.314215,-1.655236 -7.279792,-8.99692 -7.868843,-14.449619 -0.309326,-2.863357 0.278671,-7.875067 2.41629,-8.295299 2.168567,-0.426316 3.365507,-1.069185 3.959034,0.579034 z"
       id="path869"
       inkscape:connector-curvature="0"
       sodipodi:nodetypes="sccsccassssssssssass" />
    <path
       style="fill:#000000;fill-opacity:1;stroke:none;stroke-width:0.99999994px;stroke-linecap:butt;stroke-linejoin:miter;stroke-opacity:1"
       d="m 379.81641,369.47266 c -0.96228,0.0273 -0.75856,11.38163 -3.08985,10.47851 -0.86001,-0.33316 -1.97352,-9.9108 -3.07812,-9.6582 -2.63536,0.60266 -5.24194,1.47899 -8.06641,2.44336 -1.07097,0.36567 -10.83401,18.33187 -11.98047,18.71289 -0.75675,0.2515 7.13845,-17.06089 6.36719,-16.76172 -83.17892,32.26437 -189.04627,199.21906 -48.13477,259.26758 18.50806,7.88709 46.00116,6.55333 69.17216,7.0106 19.75351,0.38983 41.72408,-0.30185 59.15988,-3.64537 127.83818,-24.51447 52.3596,-233.47003 -40.48243,-263.68945 -1.37626,-0.44796 0.9076,14.66675 -0.91992,15.65039 -0.42221,-2.32541 -5.47074,-17.38208 -6.58203,-17.67969 -4.27916,-1.14597 -8.10973,-2.24968 -12.36523,-2.1289 z m -6.76172,55.11718 c 0.13317,-0.009 0.28019,5.4e-4 0.45312,0.002 1.47709,0.0147 13.40534,3.02642 13.88477,3.50586 0.1906,0.19067 -0.9621,5.62162 -2.5625,12.06836 -1.63737,6.59599 -2.70074,11.91209 -2.43164,12.15625 0.96552,0.87666 10.61587,2.90952 11.17187,2.35351 0.29809,-0.29805 1.82096,-5.58548 3.38281,-11.75 1.56193,-6.16456 2.9991,-11.3659 3.19336,-11.56055 0.50287,-0.50282 14.50314,3.09754 14.77149,3.79883 0.12238,0.31949 -1.07853,5.8447 -2.66797,12.27735 -2.01415,8.15213 -2.72126,11.89754 -2.33594,12.36132 0.30391,0.36617 1.45151,0.95446 2.55078,1.3086 4.05317,1.30598 12.38439,5.69103 16.04297,8.44336 9.00348,6.77318 12.76893,15.17693 11.25977,25.13281 -1.64678,10.86418 -6.59535,17.96485 -14.92188,21.41602 -1.667,0.69093 -3.03125,1.43584 -3.03125,1.65429 0,0.21816 1.56625,1.51291 3.48047,2.87891 10.9632,7.82317 13.93108,17.99341 9.4707,32.45312 -4.37744,14.19084 -13.32183,22.02125 -27.45507,24.03321 -4.95689,0.70563 -15.2405,0.30945 -21.71094,-0.83594 -3.33037,-0.58934 -4.50879,-0.62071 -5.00391,-0.13281 -0.35641,0.35085 -1.77463,5.17172 -3.15234,10.71289 -1.37768,5.54113 -2.75964,10.87037 -3.07031,11.84375 -0.35369,1.10755 -0.90667,1.75094 -1.47657,1.7207 -1.47231,-0.0801 -13.39917,-3.2508 -13.83398,-3.67773 -0.21885,-0.21483 0.96068,-5.74649 2.62109,-12.29297 1.66035,-6.54656 2.8198,-12.09865 2.57618,-12.33789 -0.2434,-0.23947 -2.77182,-1.05543 -5.61719,-1.8125 -4.02068,-1.06965 -5.30236,-1.22864 -5.75586,-0.71485 -0.32095,0.36378 -1.6286,4.94985 -2.90625,10.19141 -3.35339,13.7565 -3.30573,13.61485 -4.62891,13.60351 -1.43492,-0.015 -13.35684,-3.03848 -13.82422,-3.50585 -0.19068,-0.19061 0.93694,-5.54406 2.50586,-11.89454 1.56899,-6.35043 2.84589,-11.956 2.83985,-12.45898 -0.0151,-1.06832 -0.92418,-1.35246 -17.16797,-5.36133 -6.28994,-1.55225 -11.74493,-3.11631 -12.12305,-3.47461 -0.54945,-0.52025 -0.0266,-2.17863 2.60352,-8.24609 1.81105,-4.17797 3.60953,-7.91421 3.99609,-8.30078 0.57376,-0.5737 1.69496,-0.44871 6.10938,0.67578 2.97321,0.75738 6.14049,1.37292 7.03906,1.36914 1.7648,-0.008 3.62716,-1.23869 4.50781,-2.97852 0.30316,-0.59909 4.39591,-16.52666 9.0957,-35.39648 6.32263,-25.38527 8.47471,-34.85367 8.27149,-36.4043 -0.51791,-3.95172 -3.48912,-5.92055 -12.07227,-7.99804 -2.69569,-0.65246 -5.09863,-1.36963 -5.33984,-1.59375 -0.37324,-0.34715 0.53818,-4.61901 2.93945,-13.77344 0.40255,-1.53506 0.81749,-2.04102 1.66992,-2.04102 0.62387,0 7.4132,1.59815 15.08789,3.55274 12.19628,3.10582 14.03092,3.45002 14.5586,2.72851 0.33198,-0.45399 1.65304,-5.17004 2.9375,-10.48047 2.93052,-12.1161 3.13616,-13.15564 4.06836,-13.21875 z m 5.76172,46.64258 c -0.46275,0.0167 -0.74016,0.12912 -0.93555,0.32813 -0.90297,0.91974 -7.74492,28.47138 -7.26367,29.25 0.41876,0.67751 6.70868,2.42035 12.80469,3.54687 v -0.002 c 5.34636,0.98853 13.1141,0.99405 16.42187,0.0117 5.92116,-1.75835 9.44164,-6.13423 9.88672,-12.28711 0.67498,-9.33203 -7.64655,-15.62493 -26.57227,-20.09766 -2.28456,-0.53974 -3.57055,-0.77786 -4.34179,-0.75 z m -11.64063,46.03125 c -1.07019,0.15239 -1.5532,1.6453 -5.17187,15.96094 -2.74587,10.86259 -3.83279,16.04779 -3.48243,16.60742 0.55947,0.89314 10.16821,3.40288 17.54883,4.58399 18.49799,2.96005 28.84402,-2.12553 28.92188,-14.2168 0.0508,-7.89483 -7.40507,-14.59974 -21.02539,-18.90625 -6.63213,-2.09692 -15.46886,-4.21752 -16.79102,-4.0293 z"
       id="path860"
       inkscape:connector-curvature="0"
       sodipodi:nodetypes="csccccsascccccccccccccccccccscsccccccccccccccccccccccccccccscccccccccccccccccccccc"
       transform="scale(0.26458333)" />
    <path
       style="fill:#000000;stroke-width:0.26458335"
       d=""
       id="path838"
       inkscape:connector-curvature="0" />
    <path
       style="fill:#000000;stroke-width:0.26458335"
       d=""
       id="path828"
       inkscape:connector-curvature="0" />
    <path
       style="fill:#000000;stroke-width:0.26458335"
       d=""
       id="path826"
       inkscape:connector-curvature="0" />
  </g>
</svg>
