<?xml version="1.0" encoding="UTF-8" standalone="no"?>
<svg
   xmlns:dc="http://purl.org/dc/elements/1.1/"
   xmlns:cc="http://creativecommons.org/ns#"
   xmlns:rdf="http://www.w3.org/1999/02/22-rdf-syntax-ns#"
   xmlns:svg="http://www.w3.org/2000/svg"
   xmlns="http://www.w3.org/2000/svg"
   xmlns:sodipodi="http://sodipodi.sourceforge.net/DTD/sodipodi-0.dtd"
   xmlns:inkscape="http://www.inkscape.org/namespaces/inkscape"
   width="525"
   height="525"
   viewBox="0 0 524.99998 524.99999"
   version="1.1"
   xml:space="preserve"
   style="clip-rule:evenodd;fill-rule:evenodd;stroke-linejoin:round;stroke-miterlimit:1.41420996"
   id="svg191"
   sodipodi:docname="scaling.svg"
   inkscape:version="0.92.3 (2405546, 2018-03-11)"><metadata
   id="metadata195"><rdf:RDF><cc:Work
       rdf:about=""><dc:format>image/svg+xml</dc:format><dc:type
         rdf:resource="http://purl.org/dc/dcmitype/StillImage" /><dc:title></dc:title></cc:Work></rdf:RDF></metadata><sodipodi:namedview
   pagecolor="#ffffff"
   bordercolor="#666666"
   borderopacity="1"
   objecttolerance="10"
   gridtolerance="10"
   guidetolerance="10"
   inkscape:pageopacity="0"
   inkscape:pageshadow="2"
   inkscape:window-width="1912"
   inkscape:window-height="2067"
   id="namedview193"
   showgrid="false"
   fit-margin-top="0"
   fit-margin-left="0"
   fit-margin-right="0"
   fit-margin-bottom="0"
   inkscape:snap-object-midpoints="true"
   inkscape:zoom="0.66221111"
   inkscape:cx="-118.68211"
   inkscape:cy="346.79333"
   inkscape:window-x="0"
   inkscape:window-y="40"
   inkscape:window-maximized="0"
   inkscape:current-layer="g181" />
    <g
   transform="translate(-623.01045,-111.68305)"
   id="g181">
        <g
   id="jigsaw logo final"
   transform="matrix(3.5647541,0,0,3.5647541,-1570.6893,-1633.4347)">
            <g
   transform="matrix(0.238819,0,0,0.238819,463.09,481.775)"
   id="g58">
                <g
   transform="matrix(0.803273,0,0,0.803273,664.771,275.115)"
   id="g4">
                    <path
   d="m 383.38,336.87 c 2.595,0 4.837,0.465 6.721,1.378 1.893,0.922 3.455,2.164 4.708,3.726 1.236,1.57 2.156,3.405 2.75,5.508 0.59,2.109 0.886,4.376 0.886,6.803 0,3.728 -0.683,7.25 -2.062,10.57 -1.379,3.325 -3.25,6.209 -5.63,8.669 -2.378,2.457 -5.186,4.394 -8.424,5.825 -3.233,1.432 -6.748,2.148 -10.522,2.148 -0.488,0 -1.346,-0.014 -2.558,-0.039 -1.212,-0.025 -2.605,-0.15 -4.165,-0.361 -1.57,-0.219 -3.23,-0.543 -4.983,-0.977 -1.752,-0.426 -3.416,-1.023 -4.983,-1.781 l 14.012,-58.876 12.55,-1.945 -5.017,20.893 c 1.074,-0.484 2.156,-0.859 3.236,-1.132 1.081,-0.269 2.241,-0.409 3.481,-0.409 z m -10.527,34.671 c 1.89,0 3.671,-0.465 5.344,-1.378 1.678,-0.914 3.126,-2.148 4.339,-3.685 1.213,-1.544 2.173,-3.283 2.873,-5.226 0.7,-1.943 1.054,-3.97 1.054,-6.079 0,-2.591 -0.433,-4.612 -1.296,-6.073 -0.863,-1.455 -2.46,-2.187 -4.779,-2.187 -0.76,0 -1.739,0.145 -2.953,0.404 -1.218,0.275 -2.308,0.846 -3.285,1.705 l -5.342,22.188 c 0.322,0.057 0.607,0.111 0.85,0.162 0.238,0.055 0.501,0.094 0.763,0.121 0.277,0.031 0.594,0.047 0.977,0.047 0.383,0 0.862,10e-4 1.455,10e-4 z"
   style="fill:#f7931a;fill-rule:nonzero"
   id="path2"
   inkscape:connector-curvature="0" />
                </g>
                <g
   transform="matrix(0.803273,0,0,0.803273,664.771,275.115)"
   id="g8">
                    <path
   d="m 411.46,380.37 h -11.987 l 10.123,-42.597 h 12.069 z m 5.833,-47.787 c -1.673,0 -3.19,-0.498 -4.536,-1.496 -1.357,-0.992 -2.029,-2.519 -2.029,-4.577 0,-1.132 0.23,-2.194 0.686,-3.196 0.463,-1 1.068,-1.861 1.826,-2.593 0.757,-0.726 1.634,-1.306 2.63,-1.743 1.002,-0.43 2.068,-0.645 3.204,-0.645 1.672,0 3.181,0.498 4.532,1.496 1.346,1.003 2.023,2.53 2.023,4.577 0,1.136 -0.229,2.202 -0.689,3.202 -0.457,1 -1.062,1.861 -1.82,2.593 -0.751,0.727 -1.636,1.305 -2.63,1.738 -1.003,0.437 -2.065,0.644 -3.197,0.644 z"
   style="fill:#f7931a;fill-rule:nonzero"
   id="path6"
   inkscape:connector-curvature="0" />
                </g>
                <g
   transform="matrix(0.803273,0,0,0.803273,664.771,275.115)"
   id="g12">
                    <path
   d="m 432.17,327.16 12.555,-1.945 -3.083,12.556 h 13.446 l -2.428,9.878 h -13.365 l -3.56,14.9 c -0.328,1.242 -0.514,2.402 -0.566,3.48 -0.059,1.083 0.078,2.013 0.402,2.796 0.322,0.785 0.901,1.39 1.741,1.818 0.836,0.435 2.033,0.654 3.603,0.654 1.293,0 2.553,-0.123 3.771,-0.367 1.211,-0.24 2.438,-0.574 3.68,-1.011 l 0.894,9.236 c -1.62,0.594 -3.374,1.105 -5.264,1.535 -1.893,0.436 -4.134,0.646 -6.724,0.646 -3.724,0 -6.611,-0.553 -8.668,-1.654 -2.054,-1.109 -3.506,-2.624 -4.375,-4.542 -0.857,-1.911 -1.24,-4.114 -1.133,-6.596 0.111,-2.488 0.486,-5.103 1.133,-7.857 z"
   style="fill:#f7931a;fill-rule:nonzero"
   id="path10"
   inkscape:connector-curvature="0" />
                </g>
                <g
   transform="matrix(0.803273,0,0,0.803273,664.771,275.115)"
   id="g16">
                    <path
   d="m 454.56,363.36 c 0,-3.669 0.594,-7.129 1.781,-10.368 1.185,-3.242 2.892,-6.077 5.107,-8.51 2.207,-2.421 4.896,-4.339 8.061,-5.747 3.15,-1.4 6.677,-2.106 10.564,-2.106 2.433,0 4.606,0.23 6.518,0.691 1.92,0.465 3.657,1.066 5.228,1.82 l -4.134,9.4 c -1.08,-0.438 -2.201,-0.824 -3.36,-1.174 -1.16,-0.357 -2.576,-0.529 -4.251,-0.529 -4.001,0 -7.164,1.379 -9.518,4.128 -2.345,2.751 -3.526,6.454 -3.526,11.099 0,2.753 0.594,4.979 1.786,6.682 1.186,1.703 3.377,2.55 6.558,2.55 1.57,0 3.085,-0.164 4.536,-0.484 1.462,-0.324 2.753,-0.732 3.89,-1.214 l 0.895,9.636 c -1.516,0.588 -3.188,1.119 -5.022,1.584 -1.838,0.449 -4.026,0.682 -6.563,0.682 -3.349,0 -6.184,-0.49 -8.503,-1.455 -2.32,-0.98 -4.237,-2.281 -5.747,-3.929 -1.518,-1.652 -2.608,-3.581 -3.282,-5.795 -0.674,-2.212 -1.018,-4.536 -1.018,-6.961 z"
   style="fill:#f7931a;fill-rule:nonzero"
   id="path14"
   inkscape:connector-curvature="0" />
                </g>
                <g
   transform="matrix(0.803273,0,0,0.803273,664.771,275.115)"
   id="g20">
                    <path
   d="m 507.81,381.5 c -2.861,0 -5.346,-0.436 -7.454,-1.299 -2.102,-0.863 -3.843,-2.074 -5.22,-3.644 -1.379,-1.562 -2.411,-3.413 -3.118,-5.546 -0.707,-2.132 -1.047,-4.493 -1.047,-7.08 0,-3.245 0.521,-6.489 1.574,-9.724 1.048,-3.242 2.603,-6.155 4.661,-8.744 2.042,-2.593 4.561,-4.713 7.527,-6.366 2.963,-1.642 6.371,-2.468 10.199,-2.468 2.809,0 5.281,0.437 7.418,1.3 2.127,0.861 3.879,2.082 5.264,3.644 1.37,1.57 2.411,3.413 3.111,5.549 0.705,2.128 1.053,4.495 1.053,7.084 0,3.235 -0.514,6.479 -1.534,9.724 -1.021,3.229 -2.536,6.149 -4.536,8.744 -1.996,2.589 -4.492,4.708 -7.49,6.354 -2.994,1.646 -6.466,2.472 -10.408,2.472 z m 5.991,-34.662 c -1.777,0 -3.348,0.516 -4.693,1.535 -1.35,1.031 -2.484,2.327 -3.398,3.89 -0.924,1.57 -1.609,3.282 -2.072,5.143 -0.459,1.865 -0.684,3.628 -0.684,5.303 0,2.703 0.436,4.808 1.293,6.323 0.869,1.507 2.43,2.265 4.699,2.265 1.783,0 3.346,-0.512 4.699,-1.542 1.342,-1.023 2.477,-2.32 3.398,-3.886 0.918,-1.562 1.609,-3.279 2.072,-5.143 0.453,-1.859 0.684,-3.632 0.684,-5.304 0,-2.696 -0.434,-4.806 -1.299,-6.319 -0.864,-1.507 -2.432,-2.265 -4.699,-2.265 z"
   style="fill:#f7931a;fill-rule:nonzero"
   id="path18"
   inkscape:connector-curvature="0" />
                </g>
                <g
   transform="matrix(0.803273,0,0,0.803273,664.771,275.115)"
   id="g24">
                    <path
   d="m 544.84,380.37 h -11.997 l 10.123,-42.597 h 12.075 z m 5.824,-47.787 c -1.672,0 -3.188,-0.498 -4.532,-1.496 -1.35,-0.992 -2.028,-2.519 -2.028,-4.577 0,-1.132 0.233,-2.194 0.69,-3.196 0.457,-1 1.066,-1.861 1.824,-2.593 0.753,-0.726 1.638,-1.306 2.632,-1.743 0.996,-0.43 2.062,-0.645 3.194,-0.645 1.676,0 3.19,0.498 4.538,1.496 1.349,1.003 2.03,2.53 2.03,4.577 0,1.136 -0.242,2.202 -0.695,3.202 -0.453,1 -1.062,1.861 -1.817,2.593 -0.76,0.727 -1.634,1.305 -2.63,1.738 -1.004,0.437 -2.068,0.644 -3.206,0.644 z"
   style="fill:#f7931a;fill-rule:nonzero"
   id="path22"
   inkscape:connector-curvature="0" />
                </g>
                <g
   transform="matrix(0.803273,0,0,0.803273,664.771,275.115)"
   id="g28">
                    <path
   d="m 563.68,339.71 c 0.91,-0.266 1.926,-0.586 3.031,-0.934 1.109,-0.348 2.348,-0.672 3.732,-0.964 1.369,-0.301 2.914,-0.545 4.613,-0.734 1.699,-0.193 3.635,-0.287 5.786,-0.287 6.322,0 10.68,1.841 13.086,5.512 2.404,3.671 2.82,8.695 1.26,15.063 l -5.514,23 h -12.066 l 5.344,-22.516 c 0.326,-1.406 0.582,-2.765 0.771,-4.093 0.191,-1.316 0.18,-2.476 -0.043,-3.48 -0.213,-0.992 -0.715,-1.804 -1.494,-2.433 -0.791,-0.619 -1.986,-0.93 -3.607,-0.93 -1.563,0 -3.153,0.168 -4.776,0.492 l -7.857,32.959 h -12.071 z"
   style="fill:#f7931a;fill-rule:nonzero"
   id="path26"
   inkscape:connector-curvature="0" />
                </g>
                <g
   transform="matrix(0.854744,0,0,0.881179,409.044,136.583)"
   id="g32">
                    <path
   d="m 415.544,495.594 c 1.114,0 2.228,-0.085 3.342,-0.254 1.114,-0.17 2.107,-0.472 2.979,-0.908 0.872,-0.436 1.586,-1.054 2.143,-1.853 0.557,-0.799 0.835,-1.829 0.835,-3.088 0,-0.969 -0.266,-1.804 -0.799,-2.506 -0.533,-0.703 -1.211,-1.344 -2.034,-1.926 -0.823,-0.581 -1.744,-1.114 -2.761,-1.598 -1.017,-0.484 -2.034,-1.017 -3.051,-1.598 -1.308,-0.775 -2.543,-1.599 -3.706,-2.471 -1.162,-0.872 -2.155,-1.852 -2.978,-2.942 -0.824,-1.09 -1.478,-2.301 -1.962,-3.633 -0.484,-1.332 -0.727,-2.87 -0.727,-4.613 0,-2.228 0.424,-4.299 1.272,-6.212 0.847,-1.913 2.107,-3.572 3.778,-4.977 1.671,-1.405 3.766,-2.507 6.284,-3.306 2.519,-0.799 5.474,-1.199 8.864,-1.199 1.55,0 3.052,0.134 4.505,0.4 1.453,0.266 2.809,0.593 4.068,0.981 1.26,0.387 2.41,0.835 3.451,1.344 1.042,0.509 1.926,1.005 2.652,1.489 l -4.722,8.356 c -1.211,-0.921 -2.689,-1.696 -4.432,-2.325 -1.744,-0.63 -3.633,-0.945 -5.667,-0.945 -1.114,0 -2.18,0.097 -3.197,0.291 -1.017,0.193 -1.913,0.52 -2.688,0.981 -0.775,0.46 -1.393,1.053 -1.853,1.78 -0.46,0.726 -0.69,1.622 -0.69,2.688 0,0.968 0.182,1.78 0.545,2.434 0.363,0.654 0.835,1.223 1.417,1.707 0.581,0.484 1.259,0.92 2.034,1.308 0.775,0.387 1.598,0.799 2.47,1.235 1.502,0.775 2.955,1.598 4.359,2.47 1.405,0.872 2.64,1.877 3.706,3.015 1.065,1.138 1.913,2.434 2.543,3.887 0.629,1.453 0.944,3.173 0.944,5.159 0,2.76 -0.509,5.158 -1.526,7.192 -1.017,2.035 -2.446,3.73 -4.286,5.086 -1.841,1.356 -4.033,2.361 -6.575,3.015 -2.543,0.654 -5.365,0.981 -8.465,0.981 -2.034,0 -3.935,-0.17 -5.703,-0.509 -1.768,-0.339 -3.366,-0.738 -4.795,-1.198 -1.429,-0.46 -2.664,-0.957 -3.705,-1.49 -1.042,-0.533 -1.877,-1.017 -2.507,-1.453 l 4.795,-8.646 c 0.582,0.388 1.284,0.8 2.107,1.236 0.824,0.435 1.756,0.847 2.797,1.235 1.042,0.387 2.144,0.714 3.306,0.98 1.163,0.267 2.373,0.4 3.633,0.4 z"
   style="fill:#4d4d4d;fill-rule:nonzero"
   id="path30"
   inkscape:connector-curvature="0" />
                </g>
                <g
   transform="matrix(0.854744,0,0,0.881179,406.634,136.583)"
   id="g36">
                    <path
   d="m 443.879,488.765 c 0,-3.294 0.532,-6.394 1.598,-9.3 1.066,-2.906 2.591,-5.449 4.577,-7.629 1.986,-2.179 4.396,-3.899 7.229,-5.158 2.834,-1.259 5.994,-1.889 9.482,-1.889 2.179,0 4.129,0.206 5.848,0.617 1.72,0.412 3.282,0.957 4.686,1.635 l -3.705,8.428 c -0.969,-0.387 -1.974,-0.739 -3.015,-1.053 -1.041,-0.315 -2.313,-0.473 -3.814,-0.473 -3.633,0 -6.491,1.223 -8.574,3.669 -2.082,2.446 -3.124,5.776 -3.124,9.99 0,2.47 0.533,4.468 1.599,5.994 1.065,1.526 3.027,2.289 5.885,2.289 1.404,0 2.761,-0.146 4.068,-0.436 1.308,-0.291 2.47,-0.654 3.488,-1.09 l 0.799,8.646 c -1.356,0.533 -2.846,1.005 -4.468,1.416 -1.623,0.412 -3.597,0.618 -5.922,0.618 -3.003,0 -5.546,-0.436 -7.628,-1.308 -2.083,-0.872 -3.802,-2.046 -5.159,-3.523 -1.356,-1.478 -2.337,-3.209 -2.942,-5.195 -0.606,-1.986 -0.908,-4.069 -0.908,-6.248 z"
   style="fill:#4d4d4d;fill-rule:nonzero"
   id="path34"
   inkscape:connector-curvature="0" />
                </g>
                <g
   transform="matrix(0.854744,0,0,0.881179,405.154,136.583)"
   id="g40">
                    <path
   d="m 510.893,487.53 c -0.678,2.76 -0.872,5.533 -0.581,8.318 0.29,2.785 0.847,5.268 1.671,7.447 l -9.663,1.381 c -0.291,-0.581 -0.557,-1.138 -0.799,-1.671 -0.242,-0.533 -0.485,-1.139 -0.727,-1.817 -1.356,1.114 -2.858,2.035 -4.504,2.761 -1.647,0.727 -3.488,1.09 -5.522,1.09 -2.422,0 -4.492,-0.424 -6.212,-1.271 -1.719,-0.848 -3.124,-1.986 -4.214,-3.415 -1.09,-1.429 -1.877,-3.1 -2.361,-5.013 -0.484,-1.913 -0.727,-3.96 -0.727,-6.139 0,-3.343 0.594,-6.491 1.78,-9.445 1.187,-2.955 2.834,-5.534 4.941,-7.738 2.107,-2.204 4.589,-3.935 7.447,-5.195 2.858,-1.259 5.957,-1.889 9.3,-1.889 0.435,0 1.198,0.024 2.288,0.073 1.09,0.048 2.337,0.157 3.742,0.327 1.404,0.169 2.882,0.448 4.432,0.835 1.55,0.388 3.027,0.921 4.431,1.599 z m -7.556,-13.369 c -0.63,-0.097 -1.199,-0.169 -1.707,-0.218 -0.509,-0.048 -1.126,-0.072 -1.853,-0.072 -1.647,0 -3.185,0.411 -4.613,1.235 -1.429,0.823 -2.677,1.901 -3.742,3.233 -1.066,1.332 -1.901,2.87 -2.507,4.613 -0.605,1.744 -0.908,3.56 -0.908,5.449 0,2.325 0.388,4.166 1.163,5.522 0.775,1.356 2.203,2.034 4.286,2.034 1.114,0 2.119,-0.218 3.015,-0.654 0.896,-0.435 1.853,-1.162 2.87,-2.179 0.097,-1.211 0.254,-2.483 0.472,-3.814 0.218,-1.332 0.448,-2.555 0.691,-3.669 z"
   style="fill:#4d4d4d;fill-rule:nonzero"
   id="path38"
   inkscape:connector-curvature="0" />
                </g>
                <g
   transform="matrix(0.854744,0,0,0.881179,402.744,136.583)"
   id="g44">
                    <path
   d="m 533.634,504.748 c -3.439,0 -6.14,-0.448 -8.101,-1.344 -1.962,-0.896 -3.367,-2.119 -4.214,-3.669 -0.848,-1.55 -1.26,-3.33 -1.235,-5.34 0.024,-2.01 0.302,-4.153 0.835,-6.43 l 9.227,-38.579 11.262,-1.743 -10.099,41.848 c -0.194,0.872 -0.303,1.671 -0.327,2.398 -0.024,0.726 0.109,1.368 0.399,1.925 0.291,0.557 0.787,1.005 1.49,1.344 0.702,0.339 1.683,0.557 2.942,0.654 z"
   style="fill:#4d4d4d;fill-rule:nonzero"
   id="path42"
   inkscape:connector-curvature="0" />
                </g>
                <g
   transform="matrix(0.854744,0,0,0.881179,402.191,136.583)"
   id="g48">
                    <path
   d="m 551.434,504.022 h -10.753 l 9.082,-38.216 h 10.825 z m 5.231,-42.866 c -1.502,0 -2.858,-0.448 -4.069,-1.344 -1.211,-0.896 -1.816,-2.264 -1.816,-4.105 0,-1.017 0.206,-1.974 0.617,-2.87 0.412,-0.896 0.957,-1.671 1.635,-2.324 0.678,-0.654 1.465,-1.175 2.361,-1.563 0.896,-0.387 1.853,-0.581 2.87,-0.581 1.502,0 2.858,0.448 4.069,1.344 1.211,0.896 1.816,2.265 1.816,4.105 0,1.017 -0.206,1.974 -0.617,2.87 -0.412,0.896 -0.957,1.671 -1.635,2.325 -0.678,0.654 -1.465,1.175 -2.361,1.562 -0.896,0.388 -1.853,0.581 -2.87,0.581 z"
   style="fill:#4d4d4d;fill-rule:nonzero"
   id="path46"
   inkscape:connector-curvature="0" />
                </g>
                <g
   transform="matrix(0.854744,0,0,0.881179,401.247,136.583)"
   id="g52">
                    <path
   d="m 570.033,467.55 c 0.823,-0.242 1.732,-0.521 2.725,-0.836 0.992,-0.315 2.106,-0.605 3.342,-0.872 1.235,-0.266 2.615,-0.484 4.141,-0.653 1.526,-0.17 3.257,-0.255 5.195,-0.255 5.715,0 9.638,1.647 11.769,4.941 2.132,3.293 2.495,7.798 1.09,13.513 l -4.94,20.634 h -10.826 l 4.796,-20.198 c 0.29,-1.259 0.52,-2.482 0.69,-3.669 0.169,-1.187 0.157,-2.228 -0.037,-3.124 -0.193,-0.896 -0.641,-1.623 -1.344,-2.18 -0.702,-0.557 -1.78,-0.835 -3.233,-0.835 -1.404,0 -2.833,0.145 -4.286,0.436 l -7.048,29.57 h -10.825 z"
   style="fill:#4d4d4d;fill-rule:nonzero"
   id="path50"
   inkscape:connector-curvature="0" />
                </g>
                <g
   transform="matrix(0.854744,0,0,0.881179,400.443,136.583)"
   id="g56">
                    <path
   d="m 635.421,499.227 c -0.726,3.148 -1.683,5.873 -2.87,8.173 -1.186,2.301 -2.664,4.214 -4.431,5.74 -1.768,1.526 -3.887,2.664 -6.358,3.415 -2.47,0.75 -5.352,1.126 -8.645,1.126 -3.052,0 -5.619,-0.279 -7.702,-0.836 -2.082,-0.557 -3.971,-1.247 -5.667,-2.07 l 3.633,-8.574 c 1.502,0.679 3.064,1.26 4.686,1.744 1.623,0.485 3.621,0.727 5.994,0.727 3.1,0 5.437,-0.691 7.011,-2.071 1.574,-1.38 2.604,-3.16 3.088,-5.34 l 0.291,-1.38 c -0.969,0.484 -1.998,0.871 -3.088,1.162 -1.09,0.291 -2.24,0.436 -3.451,0.436 -2.277,0 -4.238,-0.351 -5.885,-1.053 -1.647,-0.703 -2.991,-1.684 -4.032,-2.943 -1.042,-1.259 -1.817,-2.749 -2.325,-4.468 -0.509,-1.72 -0.763,-3.597 -0.763,-5.631 0,-3.681 0.678,-6.938 2.034,-9.772 1.356,-2.833 3.16,-5.194 5.413,-7.083 2.252,-1.889 4.843,-3.318 7.774,-4.287 2.93,-0.969 5.994,-1.453 9.19,-1.453 2.325,0 4.626,0.242 6.902,0.726 2.277,0.485 4.505,1.236 6.685,2.253 z m -4.795,-25.066 c -0.823,-0.194 -1.84,-0.29 -3.051,-0.29 -1.841,0 -3.488,0.327 -4.941,0.98 -1.453,0.654 -2.7,1.538 -3.741,2.652 -1.042,1.114 -1.841,2.458 -2.398,4.033 -0.557,1.574 -0.836,3.257 -0.836,5.049 0,0.872 0.073,1.683 0.218,2.434 0.146,0.751 0.412,1.405 0.8,1.962 0.387,0.557 0.92,1.005 1.598,1.344 0.678,0.339 1.526,0.508 2.543,0.508 0.678,0 1.586,-0.121 2.724,-0.363 1.139,-0.242 2.168,-0.799 3.088,-1.671 z"
   style="fill:#4d4d4d;fill-rule:nonzero"
   id="path54"
   inkscape:connector-curvature="0" />
                </g>
            </g>
            <g
   transform="translate(404,430)"
   id="g178">
                <g
   transform="matrix(1.38802,0,0,1.38802,-140.981,-930.219)"
   id="g172">
                    <g
   transform="translate(-14.5943,-90.712)"
   id="g64">
                        <g
   style="filter:url(#_Effect1)"
   id="g62">
                            <path
   d="m 339.516,861.311 -0.005,-0.006 c 0.002,0.002 0.003,0.004 0.005,0.006 z m -0.026,-0.034 h -0.001 z m -0.005,-0.005 -0.001,-0.002 z m -0.004,-0.006 -10e-4,-10e-4 z m -0.004,-0.005 -10e-4,-0.002 z m -0.004,-0.006 -0.002,-0.002 z m -0.004,-0.005 -0.002,-0.002 z m -0.004,-0.006 -0.002,-0.002 z m -0.005,-0.005 -10e-4,-0.002 z m -0.005,-0.008 c -0.174,-0.236 -0.321,-0.497 -0.394,-0.783 -0.03,-0.12 -0.048,-0.243 -0.051,-0.367 -0.003,-0.113 0.004,-0.227 0.023,-0.339 -0.019,0.112 -0.026,0.226 -0.023,0.339 0.003,0.124 0.021,0.247 0.051,0.367 0.073,0.286 0.22,0.547 0.394,0.783 z m -0.421,-1.496 v -0.002 0.001 z m 0.001,-0.008 v -0.002 10e-4 z m 0.002,-0.009 z m 0.001,-0.007 v -10e-4 0 z m 10e-4,-0.007 0.001,-0.002 -0.001,10e-4 z m 0.002,-0.009 v -0.001 z m 10e-4,-0.006 v -0.003 10e-4 z m 0.002,-0.008 v -0.003 0.002 z m 0.001,-0.006 v -0.002 l 10e-4,-0.004 -10e-4,0.003 z m -50.557,25.876 v -21.262 c 0,0 0,-21.369 0,-21.369 v 0 -21.969 h 21.333 v 0 h 21.933 v 0 h 21.334 v 21.969 0 21.369 h -8.513 c -0.055,-0.125 -0.107,-0.248 -0.165,-0.369 -0.068,-0.138 -0.137,-0.275 -0.202,-0.413 -0.033,-0.074 -0.033,-0.074 -0.065,-0.148 -0.068,-0.17 -0.132,-0.345 -0.148,-0.528 -0.006,-0.065 -0.006,-0.131 -10e-4,-0.196 0.038,-0.452 0.334,-0.826 0.612,-1.163 0.063,-0.078 0.128,-0.154 0.189,-0.233 0.038,-0.05 0.074,-0.1 0.109,-0.152 0.118,-0.185 0.213,-0.383 0.269,-0.596 0.036,-0.136 0.056,-0.275 0.06,-0.415 0.002,-0.112 -0.006,-0.224 -0.023,-0.334 -0.109,-0.666 -0.578,-1.208 -1.139,-1.553 -0.354,-0.217 -0.749,-0.365 -1.155,-0.447 -0.923,-0.185 -1.937,-0.049 -2.744,0.447 -0.54,0.332 -0.996,0.847 -1.126,1.478 0.015,-0.072 0.035,-0.143 0.058,-0.213 0.297,0.645 0.504,1.344 0.61,2.101 0.009,0.012 0.018,0.023 0.028,0.035 0.055,0.074 0.055,0.074 0.108,0.15 0.087,0.131 0.167,0.265 0.228,0.41 0.122,0.284 0.174,0.605 0.104,0.91 -0.074,0.33 -0.242,0.634 -0.386,0.937 l -0.026,0.056 -0.104,0.236 h -7.912 v 0 0 7.861 c -0.242,0.114 -0.481,0.237 -0.725,0.349 -0.067,0.029 -0.135,0.057 -0.203,0.084 -0.146,0.052 -0.295,0.098 -0.45,0.108 -0.061,0.004 -0.123,0.003 -0.184,-0.003 -0.453,-0.045 -0.825,-0.347 -1.162,-0.626 -0.083,-0.068 -0.165,-0.137 -0.25,-0.202 -0.05,-0.036 -0.1,-0.071 -0.151,-0.104 -0.183,-0.112 -0.378,-0.202 -0.587,-0.254 -0.134,-0.034 -0.271,-0.051 -0.409,-0.053 -0.104,-0.002 -0.209,0.006 -0.312,0.023 -0.664,0.108 -1.206,0.58 -1.549,1.14 -0.509,0.832 -0.639,1.88 -0.43,2.825 0.084,0.38 0.226,0.749 0.43,1.083 0.343,0.56 0.885,1.032 1.549,1.14 0.116,0.019 0.234,0.027 0.351,0.023 0.122,-0.004 0.244,-0.022 0.362,-0.053 0.283,-0.075 0.541,-0.221 0.775,-0.394 0.123,-0.09 0.237,-0.191 0.357,-0.286 0.074,-0.055 0.074,-0.055 0.149,-0.109 0.131,-0.086 0.265,-0.166 0.41,-0.228 0.284,-0.122 0.604,-0.173 0.909,-0.104 0.297,0.067 0.573,0.212 0.844,0.343 l 0.276,0.131 v 8.568 z"
   style="fill:#000000;fill-opacity:0.27450998"
   id="path60"
   inkscape:connector-curvature="0" />
                        </g>
                    </g>
                    <g
   transform="translate(-532.155,69.5387)"
   id="g72">
                        <path
   d="m 849.7,703.038 v -8.189 c -0.117,-0.056 -0.233,-0.113 -0.352,-0.164 -0.113,-0.047 -0.232,-0.098 -0.355,-0.113 -0.316,-0.041 -0.606,0.12 -0.855,0.295 -0.146,0.11 -0.282,0.231 -0.428,0.34 -0.334,0.243 -0.702,0.439 -1.11,0.521 -0.171,0.034 -0.346,0.048 -0.52,0.042 -0.155,-0.005 -0.31,-0.025 -0.461,-0.06 -0.801,-0.183 -1.449,-0.763 -1.855,-1.461 -0.247,-0.422 -0.411,-0.891 -0.498,-1.371 -0.173,-0.967 -0.043,-2.003 0.417,-2.876 0.342,-0.65 0.881,-1.216 1.572,-1.491 0.118,-0.048 0.24,-0.086 0.364,-0.114 0.177,-0.041 0.357,-0.06 0.538,-0.061 0.188,-10e-4 0.375,0.022 0.557,0.066 0.331,0.08 0.643,0.23 0.92,0.427 0.2,0.143 0.382,0.31 0.576,0.46 0.05,0.037 0.1,0.073 0.151,0.108 0.118,0.075 0.244,0.146 0.383,0.173 0.145,0.028 0.282,-0.012 0.418,-0.062 0.159,-0.06 0.311,-0.137 0.463,-0.213 l 0.075,-0.037 v -8.189 h 8.175 c 0.064,-0.133 0.129,-0.265 0.185,-0.402 0.035,-0.087 0.069,-0.177 0.086,-0.269 0.018,-0.095 0.016,-0.194 -10e-4,-0.288 -0.019,-0.104 -0.055,-0.204 -0.101,-0.299 -0.052,-0.108 -0.118,-0.209 -0.187,-0.307 -0.11,-0.147 -0.23,-0.284 -0.34,-0.43 -0.097,-0.134 -0.188,-0.272 -0.266,-0.419 -0.156,-0.292 -0.26,-0.611 -0.288,-0.942 -0.014,-0.167 -0.01,-0.337 0.012,-0.504 0.016,-0.127 0.043,-0.253 0.079,-0.376 0.226,-0.764 0.807,-1.371 1.492,-1.751 0.911,-0.507 2.016,-0.645 3.034,-0.441 0.449,0.091 0.885,0.25 1.28,0.482 0.653,0.382 1.202,0.974 1.419,1.71 0.036,0.123 0.063,0.249 0.08,0.376 0.02,0.159 0.025,0.321 0.014,0.481 -0.015,0.205 -0.057,0.408 -0.123,0.602 -0.104,0.309 -0.269,0.59 -0.469,0.846 -0.119,0.145 -0.239,0.289 -0.354,0.437 -0.094,0.126 -0.184,0.257 -0.242,0.405 -0.035,0.089 -0.056,0.186 -0.047,0.283 0.012,0.13 0.064,0.258 0.115,0.377 0.051,0.12 0.11,0.237 0.168,0.354 l 0.037,0.075 h 8.175 v 21.969 h -8.513 c -0.054,-0.124 -0.107,-0.247 -0.165,-0.369 -0.067,-0.138 -0.136,-0.274 -0.201,-0.413 -0.034,-0.074 -0.033,-0.074 -0.065,-0.148 -0.068,-0.169 -0.132,-0.345 -0.149,-0.528 -0.006,-0.065 -0.006,-0.131 0,-0.196 0.038,-0.452 0.334,-0.826 0.611,-1.163 0.064,-0.077 0.128,-0.154 0.19,-0.233 0.037,-0.049 0.073,-0.1 0.108,-0.152 0.118,-0.185 0.214,-0.383 0.27,-0.596 0.036,-0.135 0.056,-0.275 0.059,-0.415 0.003,-0.112 -0.005,-0.224 -0.023,-0.334 -0.108,-0.665 -0.578,-1.208 -1.138,-1.553 -0.354,-0.217 -0.749,-0.365 -1.156,-0.446 -0.922,-0.186 -1.936,-0.05 -2.744,0.446 -0.56,0.345 -1.031,0.888 -1.139,1.553 -0.018,0.112 -0.026,0.226 -0.023,0.34 0.004,0.123 0.021,0.247 0.052,0.367 0.073,0.285 0.22,0.546 0.394,0.782 0.09,0.124 0.192,0.239 0.286,0.359 0.056,0.075 0.056,0.074 0.109,0.15 0.086,0.131 0.166,0.265 0.228,0.41 0.122,0.285 0.173,0.606 0.104,0.911 -0.075,0.329 -0.242,0.633 -0.386,0.936 l -0.026,0.056 -0.104,0.236 c -2.838,0 -5.675,0 -8.512,0 z"
   style="fill:#4d4d4d"
   id="path66"
   inkscape:connector-curvature="0" />
                        <path
   d="m 850.3,702.438 h 7.524 c 0.066,-0.14 0.136,-0.28 0.199,-0.421 0.054,-0.126 0.112,-0.258 0.129,-0.394 0.043,-0.339 -0.142,-0.66 -0.341,-0.918 -0.039,-0.051 -0.057,-0.073 -0.098,-0.122 -0.054,-0.065 -0.106,-0.13 -0.158,-0.196 -0.05,-0.067 -0.098,-0.135 -0.145,-0.204 -0.18,-0.277 -0.326,-0.574 -0.399,-0.897 -0.037,-0.165 -0.057,-0.334 -0.056,-0.504 0,-0.181 0.02,-0.362 0.06,-0.539 0.19,-0.829 0.801,-1.493 1.531,-1.899 0.429,-0.239 0.902,-0.395 1.386,-0.473 0.94,-0.15 1.939,-0.013 2.783,0.433 0.717,0.379 1.331,1 1.564,1.791 0.044,0.148 0.073,0.3 0.088,0.453 0.019,0.19 0.015,0.383 -0.012,0.572 -0.069,0.474 -0.281,0.905 -0.574,1.28 -0.119,0.146 -0.239,0.289 -0.354,0.437 -0.094,0.126 -0.184,0.258 -0.242,0.405 -0.035,0.089 -0.056,0.186 -0.047,0.283 0.005,0.058 0.02,0.116 0.038,0.172 0.034,0.105 0.076,0.207 0.123,0.308 0.062,0.135 0.131,0.269 0.197,0.403 l 0.014,0.03 h 7.523 v -20.769 h -7.955 c -0.114,-0.243 -0.236,-0.483 -0.348,-0.727 -0.078,-0.179 -0.155,-0.365 -0.182,-0.56 -0.012,-0.086 -0.016,-0.173 -0.008,-0.26 0.038,-0.452 0.334,-0.826 0.611,-1.163 0.074,-0.09 0.149,-0.178 0.218,-0.271 0.037,-0.05 0.071,-0.1 0.105,-0.153 0.114,-0.186 0.204,-0.385 0.255,-0.598 0.033,-0.136 0.05,-0.276 0.05,-0.416 -10e-4,-0.137 -0.016,-0.273 -0.046,-0.406 -0.141,-0.616 -0.589,-1.114 -1.116,-1.439 -0.354,-0.217 -0.749,-0.365 -1.156,-0.446 -0.922,-0.186 -1.936,-0.05 -2.744,0.446 -0.56,0.345 -1.031,0.887 -1.139,1.553 -0.018,0.112 -0.026,0.226 -0.023,0.34 0.004,0.123 0.021,0.247 0.052,0.367 0.073,0.285 0.22,0.546 0.394,0.782 0.09,0.124 0.191,0.239 0.286,0.359 0.056,0.075 0.056,0.074 0.109,0.15 0.095,0.145 0.182,0.293 0.246,0.454 0.109,0.273 0.152,0.577 0.086,0.866 -0.067,0.298 -0.211,0.573 -0.343,0.845 l -0.131,0.277 H 850.3 v 7.968 c -0.243,0.114 -0.482,0.237 -0.726,0.349 -0.067,0.029 -0.134,0.057 -0.203,0.084 -0.157,0.056 -0.318,0.105 -0.486,0.11 -0.504,0.016 -0.924,-0.312 -1.292,-0.616 -0.089,-0.074 -0.177,-0.149 -0.27,-0.219 -0.05,-0.036 -0.1,-0.071 -0.153,-0.104 -0.185,-0.114 -0.384,-0.204 -0.596,-0.256 -0.136,-0.032 -0.276,-0.05 -0.415,-0.049 -0.137,0 -0.273,0.015 -0.406,0.046 -0.686,0.157 -1.219,0.693 -1.539,1.3 -0.422,0.799 -0.521,1.763 -0.327,2.642 0.09,0.403 0.244,0.793 0.467,1.141 0.354,0.551 0.905,1.004 1.57,1.091 0.109,0.014 0.22,0.019 0.329,0.012 0.123,-0.007 0.245,-0.027 0.363,-0.061 0.269,-0.077 0.514,-0.217 0.737,-0.382 0.123,-0.091 0.238,-0.193 0.358,-0.288 0.075,-0.055 0.074,-0.055 0.15,-0.108 0.131,-0.087 0.265,-0.167 0.409,-0.229 0.285,-0.122 0.605,-0.173 0.91,-0.104 0.297,0.067 0.572,0.212 0.844,0.344 l 0.276,0.131 c 0,2.655 0,5.311 0,7.967 z"
   style="fill:#f7931a"
   id="path68"
   inkscape:connector-curvature="0" />
                        <path
   d="m 857.298,697.534 c -0.128,0.219 -0.225,0.457 -0.283,0.709 -0.04,0.177 -0.06,0.358 -0.06,0.539 -0.001,0.17 0.019,0.339 0.056,0.504 0.073,0.323 0.219,0.62 0.399,0.897 0.047,0.069 0.095,0.137 0.145,0.204 0.052,0.066 0.104,0.131 0.158,0.196 0.041,0.049 0.059,0.071 0.098,0.122 0.199,0.258 0.384,0.579 0.341,0.918 -0.017,0.136 -0.075,0.268 -0.129,0.394 -0.063,0.141 -0.133,0.281 -0.199,0.421 H 850.3 c 0,-2.656 0,-5.312 0,-7.967 l -0.276,-0.131 c -0.272,-0.132 -0.547,-0.277 -0.844,-0.344 -0.305,-0.069 -0.625,-0.018 -0.91,0.104 -0.144,0.062 -0.278,0.142 -0.409,0.229 -0.076,0.053 -0.075,0.053 -0.15,0.108 -0.12,0.095 -0.235,0.197 -0.358,0.288 -0.223,0.165 -0.468,0.305 -0.737,0.382 -0.118,0.034 -0.24,0.054 -0.363,0.061 -0.109,0.007 -0.22,0.002 -0.329,-0.012 -0.665,-0.087 -1.216,-0.54 -1.57,-1.091 -0.223,-0.348 -0.377,-0.738 -0.467,-1.141 -0.194,-0.879 -0.095,-1.843 0.327,-2.642 0.119,-0.227 0.269,-0.444 0.445,-0.635 0.83,-0.057 1.617,-0.216 2.308,-0.518 0.07,0.034 0.137,0.071 0.203,0.112 0.053,0.033 0.103,0.068 0.153,0.104 0.093,0.07 0.181,0.145 0.27,0.219 0.368,0.304 0.788,0.632 1.292,0.616 0.168,-0.005 0.329,-0.054 0.486,-0.11 0.069,-0.027 0.136,-0.055 0.203,-0.084 0.244,-0.112 0.483,-0.235 0.726,-0.349 v -7.968 h 7.954 l 0.131,-0.277 c 0.044,-0.091 0.089,-0.182 0.133,-0.274 0.78,1.465 1.088,3.177 0.786,5.199 -0.66,4.461 -3.134,6.621 -6.417,7.378 1.941,1.011 3.471,2.253 4.411,3.839 z"
   style="fill:#ffffff"
   id="path70"
   inkscape:connector-curvature="0" />
                    </g>
                    <g
   transform="translate(-532.155,69.5387)"
   id="g80">
                        <path
   d="m 828.367,724.3 v -8.567 c 0.219,-0.105 0.437,-0.213 0.659,-0.313 0.171,-0.075 0.349,-0.147 0.535,-0.176 0.447,-0.071 0.88,0.098 1.245,0.347 0.162,0.111 0.309,0.243 0.464,0.363 0.057,0.043 0.114,0.084 0.173,0.124 0.215,0.14 0.445,0.256 0.696,0.314 0.121,0.027 0.245,0.042 0.369,0.041 0.117,0 0.234,-0.011 0.349,-0.034 0.664,-0.13 1.195,-0.619 1.528,-1.19 0.453,-0.778 0.583,-1.732 0.425,-2.613 -0.07,-0.389 -0.199,-0.769 -0.391,-1.114 -0.303,-0.547 -0.781,-1.028 -1.394,-1.209 -0.092,-0.027 -0.187,-0.048 -0.283,-0.06 -0.119,-0.015 -0.24,-0.019 -0.36,-0.011 -0.153,0.011 -0.305,0.043 -0.451,0.092 -0.243,0.083 -0.462,0.214 -0.663,0.371 -0.121,0.099 -0.24,0.199 -0.361,0.297 -0.151,0.116 -0.304,0.229 -0.473,0.317 -0.126,0.064 -0.259,0.115 -0.397,0.142 -0.106,0.021 -0.214,0.027 -0.321,0.017 -0.119,-0.011 -0.237,-0.043 -0.35,-0.081 -0.205,-0.069 -0.398,-0.166 -0.591,-0.262 -0.059,-0.029 -0.118,-0.058 -0.178,-0.087 l -0.23,-0.109 v -8.568 h 8.175 c 0.064,-0.133 0.129,-0.265 0.184,-0.401 0.035,-0.087 0.07,-0.178 0.087,-0.27 0.018,-0.095 0.016,-0.194 -10e-4,-0.288 -0.019,-0.104 -0.055,-0.204 -0.101,-0.298 -0.052,-0.109 -0.118,-0.21 -0.188,-0.308 -0.109,-0.147 -0.23,-0.284 -0.339,-0.43 -0.243,-0.335 -0.438,-0.702 -0.519,-1.111 -0.034,-0.171 -0.048,-0.346 -0.042,-0.521 0.005,-0.155 0.025,-0.309 0.059,-0.461 0.183,-0.801 0.761,-1.45 1.459,-1.858 0.421,-0.247 0.889,-0.412 1.369,-0.498 0.966,-0.175 2.001,-0.043 2.872,0.417 0.65,0.343 1.214,0.883 1.489,1.574 0.047,0.119 0.085,0.241 0.114,0.365 0.04,0.177 0.06,0.358 0.06,0.539 0.001,0.187 -0.022,0.375 -0.066,0.557 -0.079,0.332 -0.229,0.643 -0.426,0.921 -0.142,0.201 -0.309,0.383 -0.459,0.577 -0.037,0.05 -0.073,0.101 -0.108,0.152 -0.075,0.119 -0.146,0.244 -0.173,0.384 -0.024,0.126 0.003,0.245 0.043,0.366 0.061,0.179 0.148,0.348 0.232,0.517 l 0.036,0.075 h 8.176 v 8.568 c -0.243,0.114 -0.482,0.237 -0.726,0.349 -0.067,0.029 -0.134,0.057 -0.203,0.084 -0.145,0.052 -0.294,0.098 -0.449,0.108 -0.062,0.005 -0.123,0.003 -0.185,-0.003 -0.452,-0.045 -0.824,-0.347 -1.161,-0.625 -0.083,-0.069 -0.165,-0.138 -0.251,-0.203 -0.049,-0.036 -0.099,-0.07 -0.15,-0.103 -0.183,-0.113 -0.378,-0.203 -0.587,-0.255 -0.134,-0.034 -0.272,-0.05 -0.41,-0.053 -0.104,-0.002 -0.209,0.007 -0.311,0.023 -0.665,0.109 -1.206,0.58 -1.55,1.14 -0.509,0.832 -0.639,1.88 -0.43,2.825 0.085,0.381 0.227,0.75 0.431,1.083 0.343,0.56 0.884,1.032 1.549,1.141 0.116,0.018 0.233,0.026 0.35,0.022 0.123,-0.004 0.244,-0.022 0.363,-0.053 0.283,-0.074 0.541,-0.22 0.775,-0.393 0.122,-0.091 0.237,-0.192 0.356,-0.286 0.075,-0.056 0.074,-0.056 0.15,-0.109 0.131,-0.087 0.265,-0.167 0.409,-0.229 0.285,-0.122 0.605,-0.173 0.91,-0.104 0.297,0.067 0.572,0.212 0.844,0.344 l 0.276,0.131 v 8.567 c -7.311,0 -14.622,0 -21.933,0 z"
   style="fill:#4d4d4d"
   id="path74"
   inkscape:connector-curvature="0" />
                        <path
   d="M 828.967,723.7 H 849.7 v -7.589 c -0.148,-0.071 -0.295,-0.145 -0.449,-0.204 -0.077,-0.029 -0.157,-0.058 -0.239,-0.071 -0.099,-0.015 -0.2,-0.01 -0.298,0.01 -0.093,0.02 -0.183,0.054 -0.268,0.096 -0.109,0.052 -0.209,0.118 -0.308,0.187 -0.145,0.109 -0.281,0.23 -0.426,0.339 -0.331,0.241 -0.696,0.437 -1.1,0.519 -0.175,0.036 -0.354,0.051 -0.532,0.045 -0.155,-0.005 -0.31,-0.025 -0.461,-0.06 -0.801,-0.183 -1.449,-0.763 -1.855,-1.461 -0.247,-0.422 -0.411,-0.89 -0.498,-1.371 -0.173,-0.967 -0.043,-2.003 0.417,-2.876 0.39,-0.74 1.038,-1.371 1.862,-1.587 0.2,-0.052 0.405,-0.077 0.612,-0.079 0.193,-0.002 0.388,0.024 0.576,0.071 0.325,0.081 0.631,0.23 0.904,0.424 0.184,0.132 0.352,0.285 0.53,0.425 0.067,0.051 0.134,0.101 0.204,0.147 0.122,0.078 0.254,0.15 0.399,0.172 0.117,0.017 0.228,-0.011 0.338,-0.048 0.179,-0.061 0.349,-0.148 0.517,-0.232 l 0.075,-0.037 v -7.589 h -7.955 c -0.114,-0.243 -0.236,-0.482 -0.348,-0.727 -0.03,-0.067 -0.058,-0.135 -0.084,-0.203 -0.056,-0.158 -0.105,-0.319 -0.11,-0.487 -0.016,-0.504 0.312,-0.925 0.615,-1.293 0.063,-0.077 0.128,-0.154 0.19,-0.233 0.037,-0.049 0.073,-0.1 0.108,-0.152 0.118,-0.185 0.213,-0.383 0.269,-0.596 0.036,-0.135 0.056,-0.275 0.06,-0.415 0.002,-0.112 -0.005,-0.224 -0.023,-0.334 -0.108,-0.665 -0.578,-1.208 -1.138,-1.553 -0.354,-0.217 -0.749,-0.365 -1.156,-0.446 -0.923,-0.186 -1.936,-0.05 -2.744,0.446 -0.561,0.345 -1.031,0.888 -1.139,1.553 -0.018,0.112 -0.026,0.226 -0.023,0.34 0.004,0.123 0.021,0.247 0.052,0.367 0.073,0.285 0.219,0.546 0.393,0.782 0.091,0.124 0.192,0.239 0.287,0.359 0.055,0.075 0.055,0.074 0.109,0.15 0.086,0.131 0.166,0.265 0.228,0.41 0.121,0.285 0.173,0.606 0.104,0.911 -0.068,0.297 -0.212,0.572 -0.343,0.844 l -0.131,0.277 h -7.954 v 7.589 c 0.141,0.071 0.282,0.143 0.428,0.205 0.07,0.031 0.142,0.058 0.215,0.08 0.062,0.019 0.126,0.035 0.191,0.037 0.112,0.004 0.222,-0.031 0.322,-0.079 0.149,-0.071 0.283,-0.17 0.412,-0.272 0.052,-0.042 0.105,-0.085 0.156,-0.128 0.083,-0.068 0.164,-0.136 0.248,-0.202 0.062,-0.047 0.125,-0.092 0.19,-0.135 0.238,-0.153 0.494,-0.275 0.769,-0.348 0.181,-0.048 0.367,-0.075 0.554,-0.079 0.174,-0.005 0.349,0.01 0.52,0.044 0.125,0.024 0.249,0.059 0.369,0.102 0.697,0.254 1.248,0.805 1.603,1.446 0.463,0.834 0.616,1.829 0.485,2.77 -0.072,0.516 -0.232,1.022 -0.485,1.478 -0.343,0.619 -0.867,1.154 -1.532,1.419 -0.118,0.047 -0.24,0.086 -0.365,0.114 -0.176,0.041 -0.357,0.061 -0.538,0.061 -0.169,10e-4 -0.338,-0.019 -0.503,-0.056 -0.363,-0.083 -0.697,-0.255 -0.998,-0.471 -0.145,-0.104 -0.279,-0.221 -0.419,-0.331 -0.06,-0.045 -0.06,-0.045 -0.122,-0.089 -0.089,-0.059 -0.179,-0.114 -0.277,-0.159 -0.094,-0.043 -0.193,-0.076 -0.295,-0.091 -0.085,-0.012 -0.174,-0.013 -0.258,0.003 -0.092,0.018 -0.183,0.052 -0.27,0.087 -0.121,0.05 -0.239,0.107 -0.357,0.164 l -0.043,0.021 c 0,2.53 0,5.059 0,7.589 z"
   style="fill:#f7931a"
   id="path76"
   inkscape:connector-curvature="0" />
                        <path
   d="m 843.194,713.194 c -1.096,-0.125 -2.236,-0.305 -3.417,-0.528 l -2.079,8.334 -5.026,-1.252 0.719,-2.881 0.021,-0.009 c 0.665,-0.265 1.189,-0.8 1.532,-1.419 0.253,-0.456 0.413,-0.962 0.485,-1.478 0.131,-0.941 -0.022,-1.936 -0.485,-2.77 -0.355,-0.641 -0.906,-1.192 -1.603,-1.446 -0.12,-0.043 -0.244,-0.078 -0.369,-0.102 -0.171,-0.034 -0.346,-0.049 -0.52,-0.044 -0.187,0.004 -0.373,0.031 -0.554,0.079 -0.275,0.073 -0.531,0.195 -0.769,0.348 -0.065,0.043 -0.128,0.088 -0.19,0.135 -0.084,0.066 -0.165,0.134 -0.248,0.202 -0.051,0.043 -0.104,0.086 -0.156,0.128 -0.129,0.102 -0.263,0.201 -0.412,0.272 -0.1,0.048 -0.21,0.083 -0.322,0.079 -0.065,-0.002 -0.129,-0.018 -0.191,-0.037 -0.073,-0.022 -0.145,-0.049 -0.215,-0.08 -0.146,-0.062 -0.287,-0.134 -0.428,-0.205 v -7.589 h 3.762 l -0.377,1.508 c 3.31,0.821 13.319,4.028 15.313,-1.508 h 2.035 v 7.589 l -0.075,0.037 c -0.168,0.084 -0.338,0.171 -0.517,0.232 -0.11,0.037 -0.221,0.065 -0.338,0.048 -0.145,-0.022 -0.277,-0.094 -0.399,-0.172 -0.07,-0.046 -0.137,-0.096 -0.204,-0.147 -0.178,-0.14 -0.346,-0.293 -0.53,-0.425 -0.273,-0.194 -0.579,-0.343 -0.904,-0.424 -0.188,-0.047 -0.383,-0.073 -0.576,-0.071 -0.207,0.002 -0.412,0.027 -0.612,0.079 -0.824,0.216 -1.472,0.847 -1.862,1.587 -0.312,0.592 -0.472,1.26 -0.489,1.93 z"
   style="fill:#ffffff"
   id="path78"
   inkscape:connector-curvature="0" />
                    </g>
                    <g
   transform="rotate(4.8464726,-275.91864,-5510.014)"
   id="g86">
                        <g
   style="filter:url(#_Effect2)"
   id="g84">
                            <path
   d="m 849.7,724.3 v -8.189 c -0.117,-0.056 -0.233,-0.113 -0.352,-0.164 -0.108,-0.045 -0.22,-0.092 -0.336,-0.111 -0.321,-0.05 -0.621,0.115 -0.874,0.293 -0.146,0.11 -0.282,0.231 -0.428,0.34 -0.334,0.243 -0.702,0.439 -1.11,0.521 -0.171,0.034 -0.346,0.048 -0.52,0.042 -0.155,-0.005 -0.31,-0.025 -0.461,-0.06 -0.801,-0.183 -1.449,-0.763 -1.855,-1.461 -0.247,-0.422 -0.411,-0.89 -0.498,-1.371 -0.173,-0.967 -0.043,-2.003 0.417,-2.876 0.342,-0.65 0.881,-1.216 1.572,-1.491 0.118,-0.048 0.24,-0.086 0.364,-0.114 0.177,-0.041 0.357,-0.06 0.538,-0.061 0.188,-10e-4 0.375,0.022 0.557,0.066 0.331,0.08 0.643,0.23 0.92,0.427 0.2,0.143 0.382,0.31 0.576,0.46 0.05,0.038 0.1,0.073 0.151,0.108 0.127,0.081 0.263,0.157 0.414,0.178 0.115,0.016 0.225,-0.011 0.333,-0.048 0.179,-0.061 0.349,-0.148 0.517,-0.232 l 0.075,-0.037 v -8.189 h 8.175 c 0.064,-0.133 0.129,-0.265 0.185,-0.401 0.035,-0.087 0.069,-0.178 0.086,-0.27 0.018,-0.095 0.016,-0.194 -10e-4,-0.288 -0.019,-0.104 -0.055,-0.204 -0.101,-0.298 -0.052,-0.109 -0.118,-0.21 -0.187,-0.308 -0.11,-0.147 -0.23,-0.284 -0.34,-0.43 -0.242,-0.335 -0.438,-0.702 -0.519,-1.111 -0.034,-0.171 -0.048,-0.346 -0.042,-0.521 0.005,-0.155 0.025,-0.309 0.059,-0.461 0.183,-0.801 0.762,-1.45 1.459,-1.858 0.422,-0.247 0.889,-0.412 1.369,-0.498 0.966,-0.175 2.001,-0.043 2.872,0.417 0.65,0.343 1.215,0.883 1.489,1.574 0.047,0.119 0.086,0.241 0.114,0.365 0.04,0.177 0.06,0.358 0.061,0.539 0,0.187 -0.023,0.375 -0.066,0.557 -0.08,0.332 -0.23,0.643 -0.427,0.921 -0.142,0.201 -0.309,0.383 -0.459,0.577 -0.037,0.05 -0.073,0.101 -0.107,0.152 -0.076,0.119 -0.147,0.244 -0.174,0.384 -0.024,0.126 0.003,0.245 0.044,0.366 0.06,0.179 0.147,0.348 0.231,0.517 l 0.037,0.075 h 8.175 V 724.3 c -7.311,0 -14.622,0 -21.933,0 z"
   style="fill:#000000;fill-opacity:0.27450998"
   id="path82"
   inkscape:connector-curvature="0" />
                        </g>
                    </g>
                    <g
   transform="translate(-532.155,69.5387)"
   id="g94">
                        <path
   d="m 849.7,681.669 v -8.081 c -0.117,-0.057 -0.233,-0.113 -0.352,-0.165 -0.113,-0.047 -0.232,-0.097 -0.355,-0.113 -0.316,-0.04 -0.605,0.12 -0.855,0.296 -0.146,0.109 -0.282,0.23 -0.428,0.34 -0.334,0.243 -0.702,0.439 -1.11,0.52 -0.171,0.034 -0.346,0.048 -0.52,0.042 -0.155,-0.005 -0.31,-0.025 -0.461,-0.059 -0.801,-0.184 -1.449,-0.764 -1.856,-1.461 -0.524,-0.901 -0.68,-2.002 -0.497,-3.022 0.077,-0.426 0.215,-0.843 0.417,-1.226 0.343,-0.65 0.881,-1.216 1.572,-1.491 0.118,-0.047 0.24,-0.085 0.364,-0.114 0.177,-0.04 0.357,-0.06 0.538,-0.061 0.188,-10e-4 0.375,0.023 0.557,0.066 0.331,0.08 0.642,0.23 0.919,0.428 0.201,0.142 0.383,0.309 0.577,0.46 0.05,0.037 0.1,0.073 0.151,0.107 0.118,0.076 0.244,0.146 0.383,0.173 0.145,0.028 0.282,-0.011 0.418,-0.062 0.159,-0.059 0.311,-0.137 0.463,-0.212 l 0.075,-0.037 V 659.7 h 21.933 v 21.969 h -8.554 c -0.115,-0.243 -0.237,-0.483 -0.349,-0.727 -0.029,-0.067 -0.057,-0.135 -0.084,-0.203 -0.056,-0.158 -0.104,-0.319 -0.11,-0.487 -0.012,-0.391 0.187,-0.736 0.413,-1.039 0.137,-0.178 0.286,-0.345 0.42,-0.524 0.14,-0.193 0.255,-0.402 0.326,-0.629 0.046,-0.148 0.074,-0.301 0.082,-0.455 0.005,-0.126 -0.002,-0.252 -0.022,-0.376 -0.015,-0.096 -0.039,-0.19 -0.069,-0.282 -0.2,-0.61 -0.694,-1.08 -1.251,-1.375 -0.798,-0.421 -1.76,-0.521 -2.637,-0.326 -0.402,0.089 -0.792,0.243 -1.139,0.467 -0.534,0.345 -0.977,0.874 -1.081,1.516 -0.018,0.112 -0.026,0.226 -0.023,0.339 0.004,0.124 0.021,0.247 0.052,0.367 0.073,0.286 0.219,0.547 0.393,0.783 0.091,0.124 0.192,0.239 0.287,0.359 0.056,0.075 0.056,0.074 0.109,0.15 0.095,0.145 0.182,0.293 0.246,0.454 0.1,0.25 0.143,0.524 0.1,0.792 -0.038,0.246 -0.147,0.481 -0.253,0.705 -0.078,0.164 -0.157,0.327 -0.235,0.491 -2.851,0 -5.703,0 -8.554,0 z"
   style="fill:#4d4d4d"
   id="path88"
   inkscape:connector-curvature="0" />
                        <path
   d="m 850.3,681.069 h 7.575 c 0.056,-0.117 0.113,-0.233 0.164,-0.352 0.045,-0.109 0.092,-0.221 0.111,-0.337 0.05,-0.323 -0.115,-0.623 -0.293,-0.877 -0.11,-0.146 -0.23,-0.283 -0.34,-0.429 -0.242,-0.334 -0.438,-0.703 -0.519,-1.111 -0.034,-0.172 -0.048,-0.346 -0.042,-0.521 0.005,-0.155 0.025,-0.31 0.059,-0.461 0.183,-0.801 0.762,-1.451 1.459,-1.858 0.422,-0.247 0.889,-0.412 1.369,-0.498 0.966,-0.175 2.001,-0.044 2.872,0.417 0.65,0.343 1.214,0.883 1.489,1.574 0.047,0.119 0.085,0.241 0.114,0.365 0.04,0.177 0.06,0.358 0.061,0.539 0,0.187 -0.023,0.375 -0.066,0.557 -0.08,0.332 -0.23,0.644 -0.427,0.921 -0.142,0.2 -0.309,0.383 -0.459,0.577 -0.037,0.05 -0.073,0.1 -0.107,0.152 -0.076,0.118 -0.147,0.244 -0.174,0.384 -0.028,0.145 0.012,0.283 0.063,0.419 0.059,0.159 0.136,0.312 0.212,0.464 l 0.037,0.075 h 7.575 V 660.3 H 850.3 v 8.075 c -0.243,0.115 -0.482,0.237 -0.726,0.349 -0.067,0.03 -0.134,0.058 -0.203,0.084 -0.157,0.057 -0.318,0.105 -0.486,0.111 -0.504,0.016 -0.924,-0.313 -1.292,-0.616 -0.077,-0.064 -0.153,-0.129 -0.232,-0.191 -0.05,-0.037 -0.1,-0.073 -0.152,-0.108 -0.184,-0.118 -0.382,-0.214 -0.594,-0.27 -0.136,-0.036 -0.275,-0.056 -0.415,-0.059 -0.111,-0.003 -0.223,0.005 -0.333,0.023 -0.665,0.108 -1.206,0.579 -1.55,1.14 -0.496,0.809 -0.631,1.824 -0.446,2.749 0.082,0.407 0.229,0.803 0.446,1.158 0.344,0.561 0.885,1.032 1.55,1.141 0.112,0.018 0.226,0.026 0.339,0.023 0.123,-0.004 0.246,-0.021 0.366,-0.052 0.285,-0.073 0.546,-0.22 0.781,-0.394 0.123,-0.091 0.238,-0.192 0.358,-0.287 0.075,-0.056 0.074,-0.056 0.15,-0.109 0.131,-0.087 0.265,-0.167 0.409,-0.228 0.285,-0.122 0.605,-0.174 0.91,-0.105 0.297,0.067 0.572,0.212 0.844,0.344 l 0.276,0.131 c 0,2.62 0,5.24 0,7.86 z"
   style="fill:#f7931a"
   id="path90"
   inkscape:connector-curvature="0" />
                        <path
   d="m 849.689,672.917 c -0.165,-0.076 -0.333,-0.143 -0.509,-0.183 -0.305,-0.069 -0.625,-0.017 -0.91,0.105 -0.144,0.061 -0.278,0.141 -0.409,0.228 -0.076,0.053 -0.075,0.053 -0.15,0.109 -0.12,0.095 -0.235,0.196 -0.358,0.287 -0.235,0.174 -0.496,0.321 -0.781,0.394 -0.12,0.031 -0.243,0.048 -0.366,0.052 -0.113,0.003 -0.227,-0.005 -0.339,-0.023 -0.631,-0.103 -1.15,-0.532 -1.495,-1.055 l 1.267,-5.081 c 0.074,-0.022 0.15,-0.04 0.228,-0.052 0.11,-0.018 0.222,-0.026 0.333,-0.023 0.14,0.003 0.279,0.023 0.415,0.059 0.212,0.056 0.41,0.152 0.594,0.27 0.052,0.035 0.102,0.071 0.152,0.108 0.079,0.062 0.155,0.127 0.232,0.191 0.368,0.303 0.788,0.632 1.292,0.616 0.168,-0.006 0.329,-0.054 0.486,-0.111 0.069,-0.026 0.136,-0.054 0.203,-0.084 0.244,-0.112 0.483,-0.234 0.726,-0.349 v -2.116 l 0.988,0.246 z"
   style="fill:#ffffff"
   id="path92"
   inkscape:connector-curvature="0" />
                    </g>
                    <g
   transform="translate(-532.155,69.5387)"
   id="g102">
                        <path
   d="m 839.334,688.186 c -0.276,-0.002 -0.551,-0.023 -0.824,-0.073 -0.991,-0.178 -1.969,-0.706 -2.508,-1.581 -0.093,-0.152 -0.172,-0.313 -0.233,-0.481 -0.07,-0.193 -0.116,-0.395 -0.136,-0.599 -0.024,-0.247 -0.01,-0.496 0.045,-0.738 0.082,-0.363 0.254,-0.698 0.469,-0.999 0.104,-0.146 0.221,-0.28 0.331,-0.42 0.045,-0.06 0.045,-0.06 0.089,-0.122 0.058,-0.089 0.114,-0.18 0.158,-0.277 0.039,-0.086 0.07,-0.175 0.087,-0.268 0.016,-0.088 0.018,-0.181 0.004,-0.27 -0.013,-0.082 -0.041,-0.162 -0.071,-0.239 -0.053,-0.139 -0.118,-0.273 -0.183,-0.407 l -0.02,-0.043 h -8.175 v -8.46 c 0.219,-0.104 0.437,-0.213 0.659,-0.313 0.058,-0.025 0.117,-0.05 0.176,-0.073 0.14,-0.052 0.282,-0.098 0.431,-0.112 0.425,-0.042 0.827,0.12 1.173,0.356 0.163,0.111 0.309,0.243 0.464,0.364 0.057,0.042 0.114,0.083 0.173,0.123 0.215,0.14 0.445,0.257 0.696,0.314 0.125,0.028 0.255,0.044 0.383,0.041 0.156,-0.003 0.309,-0.022 0.46,-0.062 0.657,-0.178 1.165,-0.701 1.474,-1.29 0.371,-0.708 0.488,-1.542 0.379,-2.33 -0.065,-0.466 -0.213,-0.923 -0.45,-1.33 -0.342,-0.587 -0.897,-1.087 -1.585,-1.199 -0.124,-0.02 -0.25,-0.028 -0.376,-0.022 -0.154,0.008 -0.306,0.035 -0.453,0.082 -0.227,0.071 -0.436,0.186 -0.628,0.326 -0.178,0.135 -0.346,0.284 -0.523,0.421 -0.139,0.104 -0.282,0.202 -0.439,0.276 -0.129,0.062 -0.265,0.107 -0.406,0.127 -0.427,0.06 -0.83,-0.153 -1.2,-0.337 -0.059,-0.029 -0.118,-0.058 -0.178,-0.087 l -0.23,-0.109 V 659.7 H 850.3 v 8.675 c -0.243,0.115 -0.482,0.237 -0.726,0.349 -0.178,0.079 -0.365,0.156 -0.559,0.183 -0.087,0.012 -0.173,0.016 -0.26,0.008 -0.452,-0.038 -0.825,-0.335 -1.162,-0.612 -0.089,-0.074 -0.177,-0.149 -0.27,-0.219 -0.05,-0.037 -0.1,-0.071 -0.153,-0.105 -0.185,-0.114 -0.384,-0.204 -0.596,-0.255 -0.136,-0.033 -0.276,-0.05 -0.415,-0.05 -0.137,10e-4 -0.273,0.016 -0.406,0.046 -0.686,0.157 -1.219,0.693 -1.539,1.3 -0.422,0.8 -0.521,1.764 -0.327,2.642 0.09,0.403 0.244,0.794 0.467,1.141 0.354,0.551 0.905,1.005 1.57,1.091 0.109,0.015 0.22,0.019 0.329,0.013 0.123,-0.007 0.245,-0.028 0.363,-0.062 0.269,-0.076 0.514,-0.217 0.737,-0.382 0.123,-0.091 0.238,-0.192 0.358,-0.287 0.075,-0.056 0.074,-0.055 0.15,-0.109 0.131,-0.087 0.265,-0.167 0.409,-0.228 0.285,-0.122 0.605,-0.174 0.91,-0.105 0.297,0.068 0.572,0.212 0.844,0.344 l 0.276,0.131 v 8.46 h -8.176 c -0.07,0.142 -0.142,0.283 -0.204,0.429 -0.055,0.127 -0.113,0.267 -0.117,0.407 -0.003,0.1 0.024,0.197 0.063,0.288 0.071,0.163 0.179,0.309 0.288,0.448 0.043,0.054 0.083,0.104 0.127,0.157 0.068,0.082 0.137,0.164 0.203,0.248 0.046,0.062 0.091,0.125 0.134,0.19 0.163,0.255 0.29,0.529 0.361,0.825 0.056,0.233 0.077,0.474 0.061,0.713 -0.013,0.205 -0.053,0.409 -0.117,0.604 -0.056,0.17 -0.13,0.333 -0.219,0.488 -0.481,0.833 -1.366,1.369 -2.284,1.592 -0.265,0.064 -0.534,0.101 -0.805,0.12 -0.094,0.005 -0.187,0.008 -0.281,0.008 z"
   style="fill:#4d4d4d"
   id="path96"
   inkscape:connector-curvature="0" />
                        <path
   d="m 839.334,687.586 c 0.241,-0.002 0.48,-0.02 0.718,-0.063 0.15,-0.027 0.299,-0.063 0.445,-0.108 0.117,-0.037 0.233,-0.079 0.346,-0.127 0.699,-0.296 1.345,-0.851 1.543,-1.609 0.034,-0.131 0.054,-0.267 0.058,-0.403 0.007,-0.202 -0.022,-0.404 -0.082,-0.598 -0.071,-0.227 -0.186,-0.436 -0.326,-0.629 -0.135,-0.179 -0.284,-0.346 -0.421,-0.524 -0.103,-0.139 -0.201,-0.283 -0.275,-0.44 -0.061,-0.128 -0.107,-0.265 -0.127,-0.406 -0.052,-0.381 0.113,-0.743 0.275,-1.077 0.049,-0.101 0.1,-0.201 0.149,-0.302 l 0.108,-0.231 h 7.955 v -7.481 c -0.148,-0.072 -0.295,-0.146 -0.449,-0.204 -0.077,-0.03 -0.157,-0.058 -0.239,-0.071 -0.099,-0.016 -0.2,-0.011 -0.298,0.01 -0.093,0.02 -0.183,0.053 -0.268,0.095 -0.109,0.053 -0.209,0.118 -0.308,0.188 -0.146,0.109 -0.282,0.23 -0.428,0.34 -0.334,0.243 -0.702,0.439 -1.11,0.52 -0.171,0.034 -0.346,0.048 -0.52,0.042 -0.155,-0.005 -0.31,-0.025 -0.461,-0.059 -0.801,-0.184 -1.449,-0.764 -1.855,-1.461 -0.247,-0.423 -0.411,-0.891 -0.498,-1.372 -0.173,-0.967 -0.043,-2.003 0.417,-2.876 0.342,-0.65 0.881,-1.216 1.572,-1.491 0.118,-0.047 0.24,-0.085 0.364,-0.114 0.177,-0.04 0.357,-0.06 0.538,-0.061 0.188,-10e-4 0.375,0.023 0.557,0.066 0.331,0.08 0.643,0.23 0.92,0.428 0.2,0.142 0.382,0.309 0.576,0.46 0.05,0.037 0.1,0.073 0.151,0.107 0.118,0.076 0.244,0.147 0.383,0.173 0.145,0.028 0.282,-0.011 0.418,-0.062 0.159,-0.059 0.311,-0.137 0.463,-0.212 l 0.075,-0.037 V 660.3 h -20.733 v 7.697 c 0.123,0.061 0.246,0.122 0.371,0.18 0.089,0.039 0.179,0.077 0.272,0.105 0.062,0.018 0.126,0.035 0.191,0.037 0.112,0.003 0.222,-0.032 0.322,-0.079 0.149,-0.071 0.283,-0.171 0.412,-0.273 0.052,-0.041 0.105,-0.085 0.156,-0.127 0.083,-0.068 0.164,-0.137 0.248,-0.203 0.062,-0.047 0.125,-0.092 0.19,-0.135 0.239,-0.153 0.494,-0.275 0.769,-0.348 0.181,-0.048 0.367,-0.075 0.554,-0.079 0.174,-0.004 0.349,0.011 0.52,0.044 0.125,0.025 0.249,0.059 0.369,0.103 0.697,0.254 1.248,0.804 1.603,1.445 0.492,0.886 0.635,1.954 0.457,2.946 -0.086,0.479 -0.249,0.946 -0.494,1.367 -0.39,0.674 -1.005,1.24 -1.769,1.446 -0.199,0.054 -0.402,0.079 -0.608,0.083 -0.176,0.004 -0.353,-0.017 -0.524,-0.056 -0.363,-0.083 -0.697,-0.255 -0.998,-0.47 -0.145,-0.104 -0.279,-0.221 -0.419,-0.332 -0.06,-0.045 -0.06,-0.045 -0.122,-0.088 -0.089,-0.059 -0.179,-0.115 -0.277,-0.159 -0.085,-0.039 -0.174,-0.07 -0.266,-0.087 -0.089,-0.016 -0.18,-0.018 -0.269,-0.004 -0.082,0.013 -0.162,0.041 -0.239,0.071 -0.139,0.053 -0.273,0.118 -0.406,0.183 l -0.043,0.021 v 7.481 h 7.954 c 0.104,0.22 0.212,0.438 0.312,0.66 0.026,0.059 0.05,0.118 0.073,0.177 0.052,0.14 0.097,0.282 0.112,0.431 0.042,0.425 -0.12,0.828 -0.355,1.174 -0.112,0.163 -0.243,0.31 -0.364,0.465 -0.042,0.057 -0.083,0.115 -0.123,0.173 -0.132,0.203 -0.242,0.418 -0.302,0.653 -0.05,0.193 -0.063,0.394 -0.044,0.592 0.013,0.135 0.041,0.268 0.084,0.397 0.223,0.68 0.807,1.182 1.444,1.468 0.112,0.05 0.226,0.095 0.342,0.133 0.144,0.048 0.291,0.086 0.44,0.116 0.208,0.042 0.419,0.065 0.63,0.075 0.083,0.003 0.082,0.003 0.164,0.003 z"
   style="fill:#f7931a"
   id="path98"
   inkscape:connector-curvature="0" />
                        <path
   d="m 836.803,686.594 c -0.217,-0.23 -0.389,-0.499 -0.489,-0.803 -0.043,-0.129 -0.071,-0.262 -0.084,-0.397 -0.019,-0.198 -0.006,-0.399 0.044,-0.592 0.06,-0.235 0.17,-0.45 0.302,-0.653 0.04,-0.058 0.081,-0.116 0.123,-0.173 0.121,-0.155 0.252,-0.302 0.364,-0.465 0.235,-0.346 0.397,-0.749 0.355,-1.174 -0.015,-0.149 -0.06,-0.291 -0.112,-0.431 -0.023,-0.059 -0.047,-0.118 -0.073,-0.177 -0.1,-0.222 -0.208,-0.44 -0.312,-0.66 h -7.954 v -0.24 l 0.72,-2.889 c 0.039,-0.679 -0.095,-1.47 -0.72,-2.087 v -2.265 l 0.043,-0.021 c 0.133,-0.065 0.267,-0.13 0.406,-0.183 0.077,-0.03 0.157,-0.058 0.239,-0.071 0.089,-0.014 0.18,-0.012 0.269,0.004 0.092,0.017 0.181,0.048 0.266,0.087 0.098,0.044 0.188,0.1 0.277,0.159 0.062,0.043 0.062,0.043 0.122,0.088 0.14,0.111 0.274,0.228 0.419,0.332 0.301,0.215 0.635,0.387 0.998,0.47 0.171,0.039 0.348,0.06 0.524,0.056 0.206,-0.004 0.409,-0.029 0.608,-0.083 0.764,-0.206 1.379,-0.772 1.769,-1.446 0.245,-0.421 0.408,-0.888 0.494,-1.367 0.084,-0.47 0.096,-0.957 0.034,-1.433 l 1.792,-7.18 5.023,1.252 -2.019,8.091 c 1.227,0.28 2.461,0.563 3.668,0.859 0.409,0.6 1.003,1.082 1.72,1.247 0.151,0.034 0.306,0.054 0.461,0.059 0.174,0.006 0.349,-0.008 0.52,-0.042 0.408,-0.081 0.776,-0.277 1.11,-0.52 0.146,-0.11 0.282,-0.231 0.428,-0.34 0.099,-0.07 0.199,-0.135 0.308,-0.188 0.085,-0.042 0.175,-0.075 0.268,-0.095 0.098,-0.021 0.199,-0.026 0.298,-0.01 0.082,0.013 0.162,0.041 0.239,0.071 0.099,0.037 0.195,0.081 0.29,0.127 l -0.312,1.25 c 0.158,0.054 0.315,0.109 0.471,0.165 v 6.143 h -2.575 c -2.585,-1.723 -6.548,-2.366 -8.248,-2.79 z"
   style="fill:#ffffff"
   id="path100"
   inkscape:connector-curvature="0" />
                    </g>
                    <g
   transform="translate(-532.155,69.5387)"
   id="g110">
                        <path
   d="M 807.033,681.669 V 659.7 h 21.934 v 8.297 c 0.123,0.061 0.246,0.122 0.371,0.18 0.089,0.039 0.179,0.077 0.272,0.105 0.062,0.018 0.126,0.035 0.191,0.037 0.112,0.003 0.221,-0.032 0.322,-0.079 0.149,-0.072 0.283,-0.171 0.412,-0.273 0.054,-0.043 0.103,-0.083 0.156,-0.127 0.083,-0.068 0.164,-0.137 0.248,-0.203 0.062,-0.047 0.125,-0.092 0.19,-0.135 0.238,-0.153 0.495,-0.275 0.769,-0.348 0.181,-0.048 0.367,-0.075 0.554,-0.079 0.174,-0.004 0.349,0.011 0.52,0.044 0.126,0.025 0.249,0.059 0.369,0.103 0.697,0.253 1.248,0.804 1.603,1.445 0.492,0.887 0.635,1.956 0.456,2.949 -0.081,0.454 -0.232,0.896 -0.456,1.3 -0.343,0.618 -0.867,1.153 -1.532,1.419 -0.118,0.047 -0.24,0.085 -0.365,0.114 -0.176,0.04 -0.357,0.06 -0.538,0.061 -0.169,0 -0.338,-0.019 -0.503,-0.057 -0.342,-0.078 -0.66,-0.236 -0.947,-0.435 -0.164,-0.113 -0.314,-0.243 -0.47,-0.367 -0.06,-0.045 -0.06,-0.045 -0.122,-0.088 -0.089,-0.059 -0.179,-0.115 -0.276,-0.159 -0.086,-0.039 -0.175,-0.07 -0.267,-0.087 -0.089,-0.016 -0.18,-0.018 -0.269,-0.004 -0.082,0.013 -0.162,0.041 -0.239,0.071 -0.139,0.053 -0.273,0.118 -0.406,0.183 l -0.043,0.021 v 8.081 h -8.554 c -0.105,-0.22 -0.213,-0.438 -0.313,-0.66 -0.025,-0.059 -0.05,-0.118 -0.073,-0.177 -0.051,-0.14 -0.097,-0.282 -0.112,-0.431 -0.042,-0.425 0.12,-0.828 0.356,-1.174 0.111,-0.163 0.242,-0.309 0.363,-0.465 0.042,-0.057 0.083,-0.115 0.123,-0.173 0.14,-0.216 0.256,-0.446 0.313,-0.698 0.028,-0.121 0.042,-0.246 0.042,-0.37 0,-0.117 -0.011,-0.234 -0.034,-0.349 -0.13,-0.665 -0.617,-1.198 -1.188,-1.531 -0.361,-0.212 -0.762,-0.352 -1.173,-0.426 -0.857,-0.155 -1.782,-0.035 -2.547,0.391 -0.547,0.304 -1.026,0.784 -1.207,1.397 -0.027,0.092 -0.047,0.187 -0.06,0.283 -0.015,0.12 -0.019,0.241 -0.01,0.361 0.011,0.154 0.042,0.307 0.092,0.453 0.082,0.243 0.213,0.463 0.37,0.664 0.098,0.121 0.198,0.24 0.296,0.362 0.116,0.15 0.229,0.304 0.316,0.474 0.065,0.125 0.116,0.258 0.143,0.397 0.02,0.105 0.026,0.214 0.016,0.321 -0.01,0.119 -0.042,0.237 -0.081,0.35 -0.069,0.205 -0.166,0.399 -0.261,0.592 -0.029,0.059 -0.059,0.118 -0.087,0.178 l -0.109,0.231 c -2.852,0 -5.703,0 -8.555,0 z"
   style="fill:#4d4d4d"
   id="path104"
   inkscape:connector-curvature="0" />
                        <path
   d="m 807.633,681.069 h 7.576 c 0.061,-0.124 0.122,-0.247 0.18,-0.372 0.039,-0.089 0.076,-0.179 0.104,-0.273 0.019,-0.062 0.035,-0.126 0.037,-0.191 0.004,-0.113 -0.031,-0.222 -0.079,-0.323 -0.071,-0.149 -0.17,-0.284 -0.272,-0.413 -0.043,-0.055 -0.082,-0.103 -0.127,-0.157 -0.068,-0.083 -0.136,-0.164 -0.202,-0.248 -0.047,-0.062 -0.092,-0.125 -0.135,-0.19 -0.153,-0.239 -0.274,-0.495 -0.347,-0.77 -0.048,-0.181 -0.075,-0.368 -0.079,-0.555 -0.004,-0.174 0.01,-0.349 0.044,-0.52 0.024,-0.126 0.059,-0.249 0.102,-0.369 0.253,-0.698 0.803,-1.25 1.443,-1.606 0.645,-0.359 1.386,-0.531 2.121,-0.531 0.736,0 1.477,0.172 2.122,0.531 0.729,0.405 1.341,1.07 1.53,1.899 0.041,0.177 0.061,0.358 0.061,0.539 0,0.169 -0.019,0.339 -0.056,0.504 -0.083,0.363 -0.255,0.698 -0.47,0.999 -0.103,0.146 -0.22,0.28 -0.331,0.42 -0.045,0.06 -0.045,0.06 -0.088,0.122 -0.059,0.089 -0.115,0.18 -0.159,0.277 -0.039,0.086 -0.07,0.175 -0.087,0.268 -0.016,0.088 -0.018,0.181 -0.004,0.27 0.013,0.082 0.042,0.162 0.071,0.239 0.053,0.139 0.119,0.273 0.183,0.407 l 0.021,0.043 h 7.575 v -7.86 c 0.219,-0.104 0.437,-0.213 0.659,-0.313 0.058,-0.025 0.117,-0.05 0.176,-0.073 0.14,-0.052 0.282,-0.098 0.431,-0.112 0.425,-0.042 0.827,0.12 1.173,0.356 0.163,0.111 0.309,0.243 0.464,0.364 0.057,0.042 0.114,0.083 0.173,0.123 0.215,0.141 0.445,0.257 0.696,0.314 0.121,0.028 0.245,0.042 0.369,0.041 0.117,0 0.234,-0.011 0.349,-0.033 0.664,-0.13 1.195,-0.62 1.528,-1.19 0.453,-0.779 0.583,-1.733 0.425,-2.614 -0.07,-0.389 -0.199,-0.768 -0.391,-1.114 -0.303,-0.547 -0.782,-1.028 -1.394,-1.209 -0.092,-0.027 -0.187,-0.047 -0.283,-0.06 -0.133,-0.017 -0.268,-0.02 -0.401,-0.007 -0.154,0.015 -0.306,0.05 -0.451,0.103 -0.227,0.083 -0.433,0.208 -0.622,0.357 -0.121,0.098 -0.24,0.198 -0.361,0.296 -0.151,0.117 -0.304,0.229 -0.473,0.317 -0.126,0.065 -0.259,0.116 -0.397,0.143 -0.106,0.02 -0.214,0.026 -0.321,0.017 -0.119,-0.011 -0.237,-0.043 -0.35,-0.082 -0.205,-0.069 -0.398,-0.166 -0.591,-0.262 -0.059,-0.029 -0.118,-0.058 -0.178,-0.087 l -0.23,-0.109 V 660.3 h -20.734 c 0,6.923 0,13.846 0,20.769 z"
   style="fill:#f7931a"
   id="path106"
   inkscape:connector-curvature="0" />
                        <path
   d="m 828.367,675.408 c -0.282,-0.157 -0.619,-0.29 -1.022,-0.391 0.079,-0.053 -3.65,-0.907 -3.65,-0.907 l 1.337,-5.368 6.931,1.731 -0.006,0.026 c 0.944,0.234 1.913,0.458 2.899,0.683 -0.05,0.528 -0.205,1.046 -0.471,1.504 -0.333,0.57 -0.864,1.06 -1.528,1.19 -0.115,0.022 -0.232,0.033 -0.349,0.033 -0.124,10e-4 -0.248,-0.013 -0.369,-0.041 -0.251,-0.057 -0.481,-0.173 -0.696,-0.314 -0.059,-0.04 -0.116,-0.081 -0.173,-0.123 -0.155,-0.121 -0.301,-0.253 -0.464,-0.364 -0.346,-0.236 -0.748,-0.398 -1.173,-0.356 -0.149,0.014 -0.291,0.06 -0.431,0.112 -0.059,0.023 -0.118,0.048 -0.176,0.073 -0.222,0.1 -0.44,0.209 -0.659,0.313 z"
   style="fill:#ffffff"
   id="path108"
   inkscape:connector-curvature="0" />
                    </g>
                    <g
   transform="translate(-532.155,69.5387)"
   id="g118">
                        <path
   d="m 807.033,703.038 v -21.969 h 8.176 c 0.07,-0.142 0.143,-0.283 0.205,-0.429 0.03,-0.07 0.057,-0.142 0.08,-0.216 0.018,-0.062 0.034,-0.126 0.036,-0.191 0.004,-0.113 -0.031,-0.222 -0.079,-0.323 -0.071,-0.149 -0.17,-0.284 -0.272,-0.413 -0.043,-0.056 -0.082,-0.102 -0.127,-0.157 -0.068,-0.083 -0.136,-0.164 -0.202,-0.248 -0.047,-0.062 -0.092,-0.125 -0.135,-0.19 -0.153,-0.239 -0.274,-0.495 -0.347,-0.77 -0.048,-0.181 -0.075,-0.368 -0.079,-0.555 -0.004,-0.174 0.01,-0.349 0.044,-0.52 0.024,-0.126 0.059,-0.249 0.102,-0.37 0.254,-0.697 0.803,-1.249 1.443,-1.605 0.86,-0.478 1.89,-0.627 2.856,-0.473 0.485,0.078 0.958,0.234 1.387,0.473 0.618,0.343 1.152,0.869 1.416,1.534 0.048,0.119 0.086,0.241 0.114,0.365 0.041,0.177 0.061,0.358 0.061,0.539 0,0.169 -0.019,0.339 -0.056,0.504 -0.078,0.342 -0.236,0.66 -0.434,0.948 -0.113,0.164 -0.243,0.314 -0.367,0.471 -0.045,0.06 -0.045,0.06 -0.088,0.122 -0.059,0.089 -0.115,0.18 -0.159,0.277 -0.039,0.085 -0.07,0.175 -0.086,0.268 -0.016,0.088 -0.019,0.18 -0.005,0.269 0.013,0.082 0.042,0.163 0.071,0.24 0.053,0.139 0.118,0.273 0.183,0.407 l 0.021,0.043 h 8.175 v 8.189 c 0.141,0.07 0.282,0.143 0.428,0.205 0.127,0.055 0.266,0.113 0.406,0.117 0.112,0.004 0.222,-0.031 0.322,-0.079 0.149,-0.071 0.283,-0.17 0.412,-0.272 0.052,-0.041 0.105,-0.086 0.156,-0.128 0.083,-0.068 0.164,-0.136 0.248,-0.202 0.062,-0.047 0.125,-0.092 0.19,-0.135 0.239,-0.153 0.494,-0.275 0.769,-0.348 0.181,-0.048 0.367,-0.075 0.554,-0.08 0.174,-0.004 0.349,0.011 0.52,0.045 0.125,0.024 0.249,0.059 0.369,0.102 0.697,0.254 1.248,0.805 1.603,1.446 0.463,0.834 0.616,1.829 0.485,2.77 -0.072,0.516 -0.232,1.022 -0.485,1.478 -0.355,0.641 -0.906,1.192 -1.603,1.446 -0.12,0.044 -0.244,0.079 -0.369,0.103 -0.152,0.03 -0.308,0.045 -0.463,0.045 -0.169,0 -0.338,-0.019 -0.503,-0.056 -0.363,-0.083 -0.697,-0.255 -0.998,-0.471 -0.145,-0.104 -0.279,-0.221 -0.419,-0.331 -0.06,-0.046 -0.06,-0.045 -0.122,-0.089 -0.089,-0.059 -0.179,-0.114 -0.277,-0.159 -0.085,-0.039 -0.174,-0.07 -0.266,-0.086 -0.089,-0.016 -0.18,-0.019 -0.269,-0.005 -0.082,0.013 -0.162,0.042 -0.239,0.071 -0.139,0.053 -0.273,0.119 -0.406,0.183 l -0.043,0.021 v 8.189 h -8.512 c -0.043,-0.098 -0.085,-0.195 -0.13,-0.292 -0.077,-0.163 -0.157,-0.324 -0.231,-0.489 -0.072,-0.168 -0.141,-0.341 -0.17,-0.522 -0.07,-0.448 0.098,-0.881 0.347,-1.246 0.111,-0.163 0.243,-0.309 0.363,-0.465 0.042,-0.057 0.083,-0.115 0.123,-0.173 0.14,-0.216 0.256,-0.446 0.314,-0.698 0.027,-0.121 0.041,-0.246 0.041,-0.37 0,-0.117 -0.011,-0.234 -0.034,-0.349 -0.13,-0.665 -0.617,-1.198 -1.188,-1.531 -0.361,-0.211 -0.762,-0.352 -1.173,-0.426 -0.857,-0.155 -1.782,-0.034 -2.547,0.391 -0.547,0.304 -1.027,0.784 -1.207,1.397 -0.027,0.092 -0.047,0.187 -0.06,0.283 -0.015,0.12 -0.019,0.241 -0.01,0.361 0.011,0.154 0.042,0.307 0.092,0.453 0.082,0.243 0.213,0.463 0.37,0.664 0.098,0.121 0.198,0.24 0.296,0.362 0.116,0.151 0.229,0.304 0.316,0.474 0.065,0.125 0.116,0.258 0.142,0.397 0.021,0.106 0.027,0.214 0.017,0.321 -0.009,0.1 -0.032,0.2 -0.063,0.297 -0.066,0.205 -0.158,0.398 -0.252,0.591 -0.044,0.088 -0.087,0.176 -0.13,0.264 l -0.028,0.063 -0.107,0.243 c -2.837,0 -5.675,0 -8.513,0 z"
   style="fill:#4d4d4d"
   id="path112"
   inkscape:connector-curvature="0" />
                        <path
   d="m 807.633,702.438 h 7.524 c 0.069,-0.145 0.143,-0.288 0.211,-0.433 0.046,-0.101 0.089,-0.203 0.122,-0.309 0.021,-0.064 0.038,-0.132 0.04,-0.201 0.004,-0.113 -0.031,-0.222 -0.079,-0.323 -0.071,-0.149 -0.17,-0.284 -0.272,-0.413 -0.044,-0.057 -0.081,-0.101 -0.127,-0.157 -0.068,-0.082 -0.136,-0.164 -0.202,-0.248 -0.047,-0.062 -0.092,-0.125 -0.135,-0.19 -0.153,-0.239 -0.274,-0.495 -0.347,-0.77 -0.048,-0.181 -0.075,-0.368 -0.079,-0.555 -0.004,-0.174 0.01,-0.349 0.044,-0.52 0.024,-0.126 0.059,-0.249 0.102,-0.369 0.254,-0.698 0.803,-1.25 1.443,-1.606 0.859,-0.478 1.89,-0.627 2.856,-0.473 0.485,0.078 0.958,0.234 1.387,0.473 0.618,0.344 1.152,0.869 1.416,1.534 0.048,0.119 0.086,0.241 0.114,0.365 0.041,0.177 0.061,0.358 0.061,0.539 0,0.17 -0.019,0.339 -0.056,0.504 -0.083,0.363 -0.255,0.698 -0.47,0.999 -0.103,0.146 -0.22,0.28 -0.331,0.42 -0.045,0.06 -0.045,0.06 -0.088,0.122 -0.065,0.099 -0.126,0.199 -0.172,0.308 -0.066,0.154 -0.101,0.32 -0.08,0.488 0.012,0.097 0.047,0.192 0.083,0.283 0.062,0.158 0.138,0.311 0.212,0.464 l 0.033,0.068 h 7.524 v -7.968 c 0.219,-0.104 0.437,-0.212 0.659,-0.312 0.058,-0.026 0.117,-0.05 0.176,-0.073 0.14,-0.052 0.282,-0.098 0.431,-0.113 0.425,-0.041 0.827,0.121 1.173,0.357 0.163,0.111 0.309,0.243 0.464,0.363 0.057,0.043 0.114,0.084 0.173,0.124 0.215,0.14 0.445,0.256 0.696,0.314 0.121,0.027 0.245,0.041 0.369,0.041 0.117,0 0.234,-0.011 0.349,-0.034 0.712,-0.139 1.267,-0.689 1.596,-1.313 0.198,-0.375 0.323,-0.788 0.382,-1.208 0.116,-0.835 -0.023,-1.724 -0.45,-2.457 -0.342,-0.587 -0.897,-1.087 -1.585,-1.2 -0.124,-0.02 -0.25,-0.027 -0.376,-0.021 -0.154,0.007 -0.306,0.035 -0.453,0.081 -0.227,0.072 -0.436,0.187 -0.628,0.326 -0.178,0.135 -0.346,0.285 -0.523,0.422 -0.139,0.103 -0.282,0.201 -0.439,0.276 -0.129,0.061 -0.265,0.107 -0.406,0.127 -0.427,0.059 -0.83,-0.154 -1.2,-0.337 -0.059,-0.029 -0.118,-0.059 -0.178,-0.087 l -0.23,-0.109 v -7.968 h -7.954 c -0.105,-0.22 -0.213,-0.438 -0.313,-0.66 -0.025,-0.059 -0.05,-0.118 -0.073,-0.177 -0.051,-0.14 -0.097,-0.282 -0.112,-0.431 -0.042,-0.425 0.12,-0.828 0.356,-1.174 0.111,-0.163 0.243,-0.309 0.363,-0.465 0.042,-0.057 0.083,-0.115 0.123,-0.173 0.14,-0.216 0.256,-0.446 0.314,-0.698 0.027,-0.121 0.041,-0.246 0.041,-0.37 0,-0.117 -0.011,-0.234 -0.034,-0.349 -0.13,-0.665 -0.618,-1.198 -1.188,-1.531 -0.361,-0.212 -0.762,-0.352 -1.173,-0.426 -0.857,-0.155 -1.782,-0.034 -2.547,0.391 -0.547,0.304 -1.027,0.784 -1.207,1.396 -0.027,0.093 -0.047,0.188 -0.06,0.284 -0.015,0.12 -0.019,0.241 -0.01,0.361 0.011,0.154 0.042,0.307 0.092,0.453 0.082,0.243 0.213,0.463 0.37,0.664 0.098,0.121 0.198,0.24 0.296,0.362 0.116,0.15 0.229,0.304 0.316,0.474 0.065,0.125 0.116,0.258 0.142,0.397 0.021,0.106 0.027,0.214 0.017,0.321 -0.01,0.119 -0.042,0.237 -0.081,0.35 -0.069,0.205 -0.166,0.398 -0.261,0.592 -0.029,0.059 -0.059,0.118 -0.087,0.178 l -0.109,0.231 h -7.955 c 0,6.923 0,13.846 0,20.769 z"
   style="fill:#f7931a"
   id="path114"
   inkscape:connector-curvature="0" />
                        <path
   d="m 828.367,683.235 v 6.402 l 0.23,0.109 c 0.06,0.028 0.119,0.058 0.178,0.087 0.37,0.183 0.773,0.396 1.2,0.337 0.141,-0.02 0.277,-0.066 0.406,-0.127 0.157,-0.075 0.3,-0.173 0.439,-0.276 0.177,-0.137 0.345,-0.287 0.523,-0.422 0.192,-0.139 0.401,-0.254 0.628,-0.326 0.147,-0.046 0.299,-0.074 0.453,-0.081 0.126,-0.006 0.252,10e-4 0.376,0.021 0.688,0.113 1.243,0.613 1.585,1.2 0.427,0.733 0.566,1.622 0.45,2.457 -0.059,0.42 -0.184,0.833 -0.382,1.208 -0.329,0.624 -0.884,1.174 -1.596,1.313 -0.115,0.023 -0.232,0.034 -0.349,0.034 -0.124,0 -0.248,-0.014 -0.369,-0.041 -0.251,-0.058 -0.481,-0.174 -0.696,-0.314 -0.059,-0.04 -0.116,-0.081 -0.173,-0.124 -0.155,-0.12 -0.301,-0.252 -0.464,-0.363 -0.346,-0.236 -0.748,-0.398 -1.173,-0.357 -0.149,0.015 -0.291,0.061 -0.431,0.113 -0.059,0.023 -0.118,0.047 -0.176,0.073 -0.222,0.1 -0.44,0.208 -0.659,0.312 v 7.968 h -7.524 l -0.033,-0.068 c -0.074,-0.153 -0.15,-0.306 -0.212,-0.464 -0.036,-0.091 -0.071,-0.186 -0.083,-0.283 -0.007,-0.052 -0.008,-0.104 -0.005,-0.156 0.69,0.175 1.254,0.311 1.234,0.282 1.423,0.352 2.054,-0.575 2.303,-1.193 z"
   style="fill:#ffffff"
   id="path116"
   inkscape:connector-curvature="0" />
                    </g>
                    <g
   transform="translate(-532.155,69.5387)"
   id="g126">
                        <path
   d="m 807.033,724.3 v -21.969 h 8.176 c 0.07,-0.142 0.143,-0.283 0.205,-0.429 0.03,-0.07 0.057,-0.142 0.08,-0.216 0.018,-0.062 0.034,-0.126 0.036,-0.191 0.004,-0.113 -0.031,-0.222 -0.079,-0.323 -0.071,-0.149 -0.17,-0.284 -0.272,-0.413 -0.044,-0.057 -0.081,-0.101 -0.127,-0.157 -0.068,-0.082 -0.136,-0.164 -0.202,-0.248 -0.047,-0.062 -0.092,-0.125 -0.135,-0.19 -0.153,-0.239 -0.274,-0.495 -0.347,-0.77 -0.048,-0.181 -0.075,-0.368 -0.079,-0.555 -0.004,-0.174 0.01,-0.349 0.044,-0.52 0.024,-0.126 0.059,-0.249 0.102,-0.369 0.254,-0.698 0.803,-1.25 1.443,-1.606 0.859,-0.478 1.89,-0.627 2.856,-0.473 0.485,0.078 0.958,0.234 1.387,0.473 0.618,0.344 1.152,0.869 1.416,1.534 0.048,0.119 0.086,0.241 0.114,0.365 0.041,0.177 0.061,0.358 0.061,0.539 0,0.17 -0.019,0.339 -0.056,0.504 -0.083,0.363 -0.255,0.698 -0.47,0.999 -0.103,0.146 -0.22,0.28 -0.331,0.42 -0.045,0.06 -0.045,0.06 -0.088,0.122 -0.059,0.089 -0.115,0.18 -0.159,0.277 -0.039,0.086 -0.07,0.175 -0.086,0.268 -0.016,0.088 -0.019,0.181 -0.005,0.27 0.013,0.082 0.042,0.162 0.071,0.239 0.053,0.139 0.118,0.273 0.183,0.407 l 0.021,0.043 h 8.175 v 8.189 c 0.141,0.071 0.282,0.143 0.428,0.205 0.07,0.031 0.142,0.058 0.215,0.08 0.062,0.019 0.126,0.035 0.191,0.037 0.112,0.004 0.222,-0.031 0.322,-0.079 0.149,-0.071 0.283,-0.17 0.412,-0.272 0.052,-0.042 0.105,-0.085 0.156,-0.128 0.083,-0.068 0.164,-0.136 0.248,-0.202 0.062,-0.047 0.125,-0.092 0.19,-0.135 0.238,-0.153 0.494,-0.275 0.769,-0.348 0.181,-0.048 0.367,-0.075 0.554,-0.079 0.174,-0.005 0.349,0.01 0.52,0.044 0.125,0.024 0.249,0.059 0.369,0.102 0.697,0.254 1.248,0.805 1.603,1.446 0.463,0.834 0.616,1.829 0.485,2.77 -0.072,0.516 -0.232,1.022 -0.485,1.478 -0.343,0.619 -0.867,1.154 -1.532,1.419 -0.118,0.047 -0.24,0.086 -0.365,0.114 -0.176,0.041 -0.357,0.061 -0.538,0.061 -0.169,10e-4 -0.338,-0.019 -0.503,-0.056 -0.363,-0.083 -0.697,-0.255 -0.998,-0.471 -0.145,-0.104 -0.279,-0.221 -0.419,-0.331 -0.06,-0.045 -0.06,-0.045 -0.122,-0.089 -0.089,-0.059 -0.179,-0.114 -0.277,-0.159 -0.094,-0.043 -0.193,-0.076 -0.295,-0.091 -0.085,-0.012 -0.174,-0.013 -0.258,0.003 -0.092,0.018 -0.183,0.052 -0.27,0.087 -0.121,0.05 -0.239,0.107 -0.357,0.164 l -0.043,0.021 v 8.189 c -7.311,0 -14.623,0 -21.934,0 z"
   style="fill:#4d4d4d"
   id="path120"
   inkscape:connector-curvature="0" />
                        <path
   d="m 807.633,723.7 h 20.734 v -7.967 c 0.219,-0.105 0.437,-0.213 0.659,-0.313 0.058,-0.026 0.117,-0.05 0.176,-0.073 0.14,-0.052 0.282,-0.098 0.431,-0.113 0.425,-0.041 0.827,0.121 1.173,0.357 0.162,0.111 0.309,0.243 0.464,0.363 0.057,0.043 0.114,0.084 0.173,0.124 0.215,0.14 0.445,0.256 0.696,0.314 0.121,0.027 0.245,0.042 0.369,0.041 0.117,0 0.234,-0.011 0.349,-0.034 0.664,-0.13 1.195,-0.619 1.528,-1.19 0.453,-0.778 0.583,-1.732 0.425,-2.613 -0.07,-0.389 -0.199,-0.769 -0.391,-1.114 -0.303,-0.547 -0.781,-1.028 -1.394,-1.209 -0.092,-0.027 -0.187,-0.048 -0.283,-0.06 -0.119,-0.015 -0.24,-0.019 -0.36,-0.011 -0.153,0.011 -0.305,0.043 -0.451,0.092 -0.243,0.083 -0.462,0.214 -0.663,0.371 -0.121,0.099 -0.24,0.199 -0.361,0.297 -0.151,0.116 -0.304,0.229 -0.473,0.317 -0.126,0.064 -0.259,0.115 -0.397,0.142 -0.106,0.021 -0.214,0.027 -0.321,0.017 -0.119,-0.011 -0.237,-0.043 -0.35,-0.081 -0.205,-0.069 -0.398,-0.166 -0.591,-0.262 -0.059,-0.029 -0.118,-0.058 -0.178,-0.087 l -0.23,-0.109 v -7.968 h -7.954 c -0.105,-0.22 -0.213,-0.438 -0.313,-0.66 -0.025,-0.059 -0.05,-0.118 -0.073,-0.177 -0.051,-0.14 -0.097,-0.282 -0.112,-0.431 -0.042,-0.425 0.12,-0.828 0.356,-1.174 0.111,-0.163 0.243,-0.309 0.363,-0.465 0.042,-0.057 0.083,-0.115 0.123,-0.173 0.14,-0.216 0.256,-0.446 0.314,-0.698 0.027,-0.121 0.041,-0.246 0.041,-0.37 0,-0.117 -0.011,-0.234 -0.034,-0.349 -0.13,-0.665 -0.617,-1.198 -1.188,-1.531 -0.361,-0.211 -0.762,-0.352 -1.173,-0.426 -0.857,-0.155 -1.782,-0.034 -2.547,0.391 -0.547,0.304 -1.027,0.784 -1.207,1.397 -0.027,0.092 -0.047,0.187 -0.06,0.283 -0.015,0.12 -0.019,0.241 -0.01,0.361 0.011,0.154 0.042,0.307 0.092,0.453 0.082,0.243 0.213,0.463 0.37,0.664 0.098,0.121 0.198,0.24 0.296,0.362 0.116,0.151 0.229,0.304 0.316,0.474 0.065,0.125 0.116,0.258 0.142,0.397 0.021,0.106 0.027,0.214 0.017,0.321 -0.01,0.119 -0.042,0.237 -0.081,0.35 -0.069,0.205 -0.166,0.399 -0.261,0.592 -0.029,0.059 -0.059,0.118 -0.087,0.178 l -0.109,0.231 h -7.955 c 0,6.923 0,13.846 0,20.769 z"
   style="fill:#f7931a"
   id="path122"
   inkscape:connector-curvature="0" />
                        <path
   d="m 828.367,718.674 -4.728,-1.179 2.08,-8.35 c -1.174,-0.301 -2.366,-0.62 -3.583,-0.925 l -6.54,-1.63 2.495,-5.753 c 0,0 0.918,0.245 1.833,0.481 -0.016,0.113 -0.02,0.228 -0.009,0.345 0.015,0.149 0.061,0.291 0.112,0.431 0.023,0.059 0.048,0.118 0.073,0.177 0.1,0.222 0.208,0.44 0.313,0.66 h 7.954 v 7.968 l 0.23,0.109 c 0.06,0.029 0.119,0.058 0.178,0.087 0.193,0.096 0.386,0.193 0.591,0.262 0.113,0.038 0.231,0.07 0.35,0.081 0.107,0.01 0.215,0.004 0.321,-0.017 0.138,-0.027 0.271,-0.078 0.397,-0.142 0.034,-0.018 0.068,-0.037 0.102,-0.057 l -1.005,4.027 c -0.112,0.022 -0.221,0.058 -0.329,0.098 -0.059,0.023 -0.118,0.047 -0.176,0.073 -0.222,0.1 -0.44,0.208 -0.659,0.313 z"
   style="fill:#ffffff"
   id="path124"
   inkscape:connector-curvature="0" />
                    </g>
                    <g
   transform="translate(-532.155,69.5387)"
   id="g134">
                        <path
   d="m 828.367,703.038 v -8.567 c 0.219,-0.105 0.437,-0.214 0.659,-0.313 0.171,-0.075 0.349,-0.147 0.535,-0.176 0.447,-0.071 0.88,0.098 1.245,0.347 0.163,0.111 0.309,0.243 0.464,0.363 0.057,0.043 0.114,0.084 0.173,0.124 0.215,0.14 0.445,0.256 0.696,0.314 0.121,0.027 0.245,0.041 0.369,0.041 0.117,0 0.234,-0.011 0.349,-0.034 0.712,-0.139 1.267,-0.689 1.596,-1.313 0.385,-0.732 0.5,-1.6 0.37,-2.413 -0.07,-0.439 -0.214,-0.868 -0.438,-1.252 -0.304,-0.521 -0.771,-0.974 -1.36,-1.148 -0.092,-0.027 -0.187,-0.048 -0.283,-0.06 -0.119,-0.016 -0.24,-0.019 -0.36,-0.011 -0.153,0.011 -0.305,0.043 -0.451,0.092 -0.243,0.083 -0.462,0.214 -0.663,0.371 -0.121,0.099 -0.24,0.199 -0.361,0.297 -0.151,0.116 -0.304,0.229 -0.473,0.317 -0.126,0.064 -0.259,0.115 -0.397,0.142 -0.106,0.021 -0.214,0.027 -0.321,0.017 -0.12,-0.011 -0.237,-0.043 -0.35,-0.081 -0.205,-0.069 -0.398,-0.166 -0.591,-0.262 -0.059,-0.029 -0.118,-0.059 -0.178,-0.087 l -0.23,-0.109 v -8.568 h 8.554 c 0.104,0.22 0.212,0.438 0.312,0.66 0.026,0.059 0.05,0.118 0.073,0.177 0.052,0.14 0.098,0.282 0.112,0.432 0.042,0.425 -0.12,0.827 -0.355,1.173 -0.112,0.163 -0.243,0.31 -0.364,0.465 -0.042,0.057 -0.083,0.115 -0.123,0.173 -0.14,0.215 -0.256,0.446 -0.313,0.698 -0.028,0.121 -0.042,0.246 -0.042,0.37 10e-4,0.117 0.012,0.234 0.034,0.349 0.13,0.665 0.618,1.197 1.189,1.531 0.797,0.467 1.784,0.593 2.684,0.411 0.361,-0.072 0.713,-0.197 1.035,-0.376 0.548,-0.305 1.026,-0.784 1.207,-1.397 0.028,-0.093 0.048,-0.187 0.06,-0.283 0.017,-0.134 0.02,-0.269 0.007,-0.403 -0.014,-0.154 -0.05,-0.306 -0.102,-0.452 -0.083,-0.227 -0.208,-0.433 -0.357,-0.623 -0.098,-0.121 -0.198,-0.24 -0.295,-0.362 -0.117,-0.151 -0.229,-0.304 -0.317,-0.474 -0.064,-0.125 -0.115,-0.258 -0.142,-0.397 -0.02,-0.106 -0.027,-0.214 -0.017,-0.321 0.011,-0.119 0.043,-0.237 0.081,-0.35 0.069,-0.205 0.166,-0.399 0.261,-0.592 0.03,-0.059 0.059,-0.118 0.088,-0.178 l 0.108,-0.231 h 8.555 v 8.568 c -0.243,0.114 -0.482,0.237 -0.726,0.349 -0.067,0.029 -0.134,0.057 -0.203,0.084 -0.157,0.056 -0.318,0.105 -0.486,0.11 -0.504,0.016 -0.924,-0.312 -1.292,-0.616 -0.089,-0.074 -0.177,-0.149 -0.27,-0.219 -0.05,-0.036 -0.1,-0.071 -0.152,-0.104 -0.186,-0.114 -0.385,-0.205 -0.597,-0.256 -0.136,-0.032 -0.276,-0.05 -0.415,-0.049 -0.137,0 -0.273,0.015 -0.406,0.046 -0.686,0.157 -1.219,0.692 -1.539,1.3 -0.41,0.777 -0.515,1.709 -0.343,2.566 0.087,0.43 0.245,0.848 0.483,1.217 0.344,0.534 0.872,0.978 1.513,1.082 0.112,0.019 0.226,0.027 0.339,0.023 0.139,-0.004 0.277,-0.025 0.41,-0.063 0.269,-0.077 0.514,-0.217 0.737,-0.382 0.123,-0.091 0.238,-0.193 0.359,-0.288 0.074,-0.055 0.073,-0.055 0.149,-0.108 0.144,-0.096 0.292,-0.183 0.453,-0.247 0.24,-0.096 0.499,-0.139 0.755,-0.106 0.26,0.034 0.507,0.148 0.741,0.26 0.163,0.078 0.326,0.157 0.49,0.235 v 8.567 h -8.513 c -0.054,-0.124 -0.107,-0.247 -0.165,-0.369 -0.067,-0.138 -0.136,-0.275 -0.202,-0.413 -0.033,-0.074 -0.033,-0.074 -0.065,-0.148 -0.068,-0.169 -0.131,-0.345 -0.148,-0.528 -0.006,-0.065 -0.006,-0.131 -10e-4,-0.195 0.029,-0.342 0.21,-0.641 0.409,-0.91 0.137,-0.177 0.286,-0.345 0.421,-0.524 0.14,-0.193 0.254,-0.402 0.326,-0.629 0.046,-0.148 0.074,-0.301 0.081,-0.455 0.006,-0.125 -10e-4,-0.252 -0.021,-0.376 -0.016,-0.096 -0.039,-0.19 -0.069,-0.282 -0.2,-0.61 -0.695,-1.08 -1.251,-1.374 -0.776,-0.41 -1.706,-0.516 -2.562,-0.343 -0.429,0.086 -0.846,0.245 -1.214,0.483 -0.534,0.345 -0.977,0.874 -1.081,1.516 -0.018,0.112 -0.026,0.226 -0.023,0.34 0.004,0.123 0.021,0.247 0.052,0.367 0.073,0.285 0.219,0.546 0.393,0.782 0.091,0.124 0.192,0.239 0.287,0.359 0.055,0.075 0.055,0.074 0.109,0.15 0.086,0.131 0.166,0.265 0.228,0.41 0.121,0.285 0.173,0.605 0.104,0.91 -0.075,0.33 -0.243,0.634 -0.387,0.937 l -0.025,0.056 -0.105,0.236 c -2.837,0 -5.674,0 -8.511,0 z"
   style="fill:#4d4d4d"
   id="path128"
   inkscape:connector-curvature="0" />
                        <path
   d="m 828.967,702.438 h 7.523 c 0.067,-0.14 0.136,-0.28 0.2,-0.421 0.051,-0.121 0.106,-0.246 0.126,-0.376 0.051,-0.321 -0.114,-0.622 -0.293,-0.875 -0.109,-0.147 -0.23,-0.284 -0.339,-0.43 -0.243,-0.335 -0.438,-0.702 -0.519,-1.111 -0.034,-0.171 -0.048,-0.346 -0.042,-0.521 0.005,-0.155 0.025,-0.309 0.059,-0.461 0.183,-0.801 0.761,-1.45 1.458,-1.858 0.448,-0.262 0.948,-0.432 1.459,-0.514 0.94,-0.15 1.938,-0.013 2.783,0.433 0.65,0.343 1.214,0.883 1.489,1.574 0.047,0.119 0.085,0.241 0.114,0.366 0.04,0.176 0.06,0.357 0.06,0.538 0.001,0.187 -0.022,0.375 -0.066,0.557 -0.079,0.332 -0.229,0.644 -0.426,0.921 -0.143,0.2 -0.309,0.383 -0.459,0.577 -0.037,0.05 -0.073,0.1 -0.108,0.152 -0.081,0.127 -0.157,0.264 -0.178,0.415 -0.02,0.142 0.026,0.281 0.077,0.412 0.078,0.204 0.182,0.397 0.277,0.592 l 0.014,0.03 h 7.524 v -7.589 c -0.148,-0.071 -0.295,-0.145 -0.449,-0.204 -0.083,-0.031 -0.169,-0.062 -0.258,-0.073 -0.093,-0.012 -0.187,-0.007 -0.279,0.012 -0.093,0.02 -0.183,0.054 -0.268,0.096 -0.109,0.052 -0.209,0.118 -0.308,0.187 -0.146,0.11 -0.282,0.231 -0.428,0.34 -0.334,0.243 -0.702,0.439 -1.11,0.521 -0.171,0.034 -0.346,0.047 -0.52,0.042 -0.155,-0.005 -0.31,-0.025 -0.461,-0.06 -0.801,-0.183 -1.449,-0.763 -1.856,-1.461 -0.231,-0.396 -0.39,-0.833 -0.48,-1.283 -0.199,-0.992 -0.074,-2.065 0.4,-2.964 0.342,-0.65 0.881,-1.216 1.571,-1.491 0.119,-0.048 0.241,-0.086 0.365,-0.114 0.177,-0.041 0.357,-0.06 0.538,-0.061 0.188,-10e-4 0.375,0.022 0.557,0.066 0.331,0.08 0.643,0.23 0.92,0.427 0.2,0.143 0.382,0.31 0.576,0.46 0.05,0.037 0.1,0.073 0.151,0.108 0.127,0.081 0.263,0.157 0.414,0.178 0.115,0.016 0.225,-0.012 0.334,-0.048 0.178,-0.061 0.348,-0.148 0.516,-0.232 l 0.075,-0.037 v -7.589 h -7.576 c -0.07,0.142 -0.142,0.283 -0.204,0.429 -0.03,0.07 -0.058,0.142 -0.08,0.215 -0.019,0.063 -0.035,0.126 -0.037,0.192 -0.004,0.112 0.031,0.222 0.079,0.323 0.071,0.149 0.17,0.284 0.272,0.413 0.043,0.054 0.083,0.104 0.127,0.157 0.068,0.082 0.137,0.164 0.203,0.248 0.046,0.062 0.091,0.125 0.134,0.19 0.153,0.239 0.275,0.495 0.348,0.771 0.047,0.18 0.074,0.367 0.079,0.554 0.004,0.174 -0.011,0.349 -0.045,0.52 -0.024,0.126 -0.058,0.249 -0.102,0.369 -0.253,0.698 -0.803,1.25 -1.443,1.606 -0.428,0.239 -0.902,0.395 -1.386,0.473 -0.966,0.154 -1.997,0.005 -2.857,-0.473 -0.618,-0.344 -1.152,-0.869 -1.416,-1.534 -0.047,-0.119 -0.085,-0.241 -0.114,-0.365 -0.04,-0.177 -0.06,-0.358 -0.061,-0.539 0,-0.17 0.019,-0.339 0.057,-0.504 0.078,-0.342 0.235,-0.66 0.433,-0.948 0.113,-0.165 0.244,-0.314 0.367,-0.471 0.045,-0.06 0.045,-0.06 0.089,-0.122 0.058,-0.089 0.114,-0.18 0.158,-0.277 0.039,-0.086 0.07,-0.175 0.087,-0.268 0.016,-0.088 0.018,-0.18 0.004,-0.269 -0.013,-0.082 -0.041,-0.163 -0.071,-0.24 -0.053,-0.139 -0.118,-0.273 -0.183,-0.407 l -0.02,-0.043 h -7.575 v 7.589 c 0.141,0.07 0.282,0.143 0.428,0.205 0.07,0.03 0.142,0.058 0.215,0.08 0.062,0.019 0.126,0.035 0.191,0.037 0.112,0.004 0.222,-0.031 0.322,-0.079 0.149,-0.071 0.283,-0.17 0.412,-0.272 0.052,-0.041 0.105,-0.086 0.156,-0.128 0.083,-0.068 0.164,-0.136 0.248,-0.202 0.062,-0.047 0.125,-0.092 0.19,-0.135 0.239,-0.153 0.494,-0.275 0.769,-0.348 0.181,-0.048 0.367,-0.075 0.554,-0.08 0.174,-0.004 0.349,0.011 0.52,0.045 0.125,0.024 0.249,0.059 0.369,0.102 0.697,0.254 1.248,0.805 1.603,1.446 0.478,0.86 0.626,1.892 0.471,2.86 -0.077,0.485 -0.233,0.958 -0.471,1.388 -0.355,0.641 -0.906,1.192 -1.603,1.446 -0.12,0.044 -0.244,0.079 -0.369,0.103 -0.153,0.03 -0.308,0.045 -0.463,0.045 -0.169,0 -0.338,-0.019 -0.503,-0.056 -0.342,-0.078 -0.66,-0.236 -0.947,-0.435 -0.164,-0.113 -0.314,-0.244 -0.47,-0.367 -0.06,-0.046 -0.06,-0.045 -0.122,-0.089 -0.089,-0.059 -0.179,-0.114 -0.276,-0.159 -0.086,-0.039 -0.175,-0.07 -0.267,-0.086 -0.089,-0.016 -0.18,-0.019 -0.269,-0.005 -0.082,0.013 -0.162,0.042 -0.239,0.071 -0.139,0.053 -0.273,0.119 -0.406,0.183 l -0.043,0.021 c 0,2.53 0,5.059 0,7.589 z"
   style="fill:#f7931a"
   id="path130"
   inkscape:connector-curvature="0" />
                        <path
   d="m 847.816,702.438 0.005,-0.02 c 1.599,-6.412 -8.98,-8.141 -12.552,-9.003 0.064,-0.205 0.113,-0.415 0.146,-0.626 0.155,-0.968 0.007,-2 -0.471,-2.86 -0.355,-0.641 -0.906,-1.192 -1.603,-1.446 -0.12,-0.043 -0.244,-0.078 -0.369,-0.102 -0.171,-0.034 -0.346,-0.049 -0.52,-0.045 -0.187,0.005 -0.373,0.032 -0.554,0.08 -0.275,0.073 -0.53,0.195 -0.769,0.348 -0.065,0.043 -0.128,0.088 -0.19,0.135 -0.084,0.066 -0.165,0.134 -0.248,0.202 -0.051,0.042 -0.104,0.087 -0.156,0.128 -0.129,0.102 -0.263,0.201 -0.412,0.272 -0.1,0.048 -0.21,0.083 -0.322,0.079 -0.065,-0.002 -0.129,-0.018 -0.191,-0.037 -0.073,-0.022 -0.145,-0.05 -0.215,-0.08 -0.146,-0.062 -0.287,-0.135 -0.428,-0.205 v -7.589 h 7.575 l 0.02,0.043 c 0.065,0.134 0.13,0.268 0.183,0.407 0.03,0.077 0.058,0.158 0.071,0.24 0.014,0.089 0.012,0.181 -0.004,0.269 -0.017,0.093 -0.048,0.182 -0.087,0.268 -0.044,0.097 -0.1,0.188 -0.158,0.277 -0.044,0.062 -0.044,0.062 -0.089,0.122 -0.123,0.157 -0.254,0.306 -0.367,0.471 -0.198,0.288 -0.355,0.606 -0.433,0.948 -0.038,0.165 -0.057,0.334 -0.057,0.504 10e-4,0.181 0.021,0.362 0.061,0.539 0.029,0.124 0.067,0.246 0.114,0.365 0.177,0.447 0.477,0.83 0.841,1.138 l -0.262,1.052 c 1.501,0.374 4.655,1.358 7.504,1.36 -0.071,0.107 -0.137,0.217 -0.196,0.33 -0.474,0.899 -0.599,1.972 -0.4,2.964 0.09,0.45 0.249,0.887 0.48,1.283 0.407,0.698 1.055,1.278 1.856,1.461 0.151,0.035 0.306,0.055 0.461,0.06 0.174,0.005 0.349,-0.008 0.52,-0.042 0.408,-0.082 0.776,-0.278 1.11,-0.521 0.146,-0.109 0.282,-0.23 0.428,-0.34 0.099,-0.069 0.199,-0.135 0.308,-0.187 0.085,-0.042 0.175,-0.076 0.268,-0.096 0.092,-0.019 0.186,-0.024 0.279,-0.012 0.089,0.011 0.175,0.042 0.258,0.073 0.154,0.059 0.301,0.133 0.449,0.204 v 7.589 z"
   style="fill:#ffffff"
   id="path132"
   inkscape:connector-curvature="0" />
                    </g>
                    <g
   transform="translate(-532.155,69.5387)"
   id="g138">
                        <path
   d="m 829.362,715.929 -0.395,1.586 v -1.404 l 0.043,-0.021 c 0.116,-0.056 0.232,-0.113 0.352,-0.161 z"
   style="fill:#ffffff"
   id="path136"
   inkscape:connector-curvature="0" />
                    </g>
                    <g
   transform="translate(-532.155,69.5387)"
   id="g142">
                        <path
   d="m 833.585,716.089 1.04,-4.164 c 0.082,0.217 0.144,0.442 0.185,0.671 0.158,0.881 0.028,1.835 -0.425,2.613 -0.2,0.343 -0.471,0.656 -0.8,0.88 z"
   style="fill:#ffffff"
   id="path140"
   inkscape:connector-curvature="0" />
                    </g>
                    <g
   transform="translate(-532.155,69.5387)"
   id="g146">
                        <path
   d="m 834.398,711.443 c -1.014,-0.253 -2.045,-0.519 -3.099,-0.801 0.192,-0.147 0.402,-0.269 0.632,-0.348 0.146,-0.049 0.298,-0.081 0.451,-0.092 0.12,-0.008 0.241,-0.004 0.36,0.011 0.096,0.012 0.191,0.033 0.283,0.06 0.598,0.177 1.068,0.639 1.373,1.17 z"
   style="fill:#ffffff"
   id="path144"
   inkscape:connector-curvature="0" />
                    </g>
                    <g
   transform="translate(-532.155,69.5387)"
   id="g150">
                        <path
   d="m 832.852,702.438 h -3.885 c 0,-2.53 0,-5.059 0,-7.589 l 0.043,-0.021 c 0.133,-0.064 0.267,-0.13 0.406,-0.183 0.077,-0.029 0.157,-0.058 0.239,-0.071 0.089,-0.014 0.18,-0.011 0.269,0.005 0.092,0.016 0.181,0.047 0.267,0.086 0.097,0.045 0.187,0.1 0.276,0.159 0.062,0.044 0.062,0.043 0.122,0.089 0.156,0.123 0.306,0.254 0.47,0.367 0.287,0.199 0.605,0.357 0.947,0.435 0.165,0.037 0.334,0.056 0.503,0.056 0.155,0 0.31,-0.015 0.463,-0.045 0.125,-0.024 0.249,-0.059 0.369,-0.103 0.662,-0.241 1.191,-0.75 1.547,-1.349 z"
   style="fill:#ffffff"
   id="path148"
   inkscape:connector-curvature="0" />
                    </g>
                    <g
   transform="translate(-532.155,69.5387)"
   id="g154">
                        <path
   d="m 847.914,681.669 h 1.786 v 7.589 l -0.075,0.037 c -0.168,0.084 -0.338,0.171 -0.516,0.232 -0.109,0.036 -0.219,0.064 -0.334,0.048 -0.151,-0.021 -0.287,-0.097 -0.414,-0.178 -0.051,-0.035 -0.101,-0.071 -0.151,-0.108 -0.194,-0.15 -0.376,-0.317 -0.576,-0.46 l -0.044,-0.03 c 0.844,-0.536 1.482,-1.358 1.785,-2.572 0.496,-1.988 -0.205,-3.457 -1.461,-4.558 z"
   style="fill:#ffffff"
   id="path152"
   inkscape:connector-curvature="0" />
                    </g>
                    <g
   transform="translate(-532.155,69.5387)"
   id="g158">
                        <path
   d="m 858.131,680.467 c -0.024,0.086 -0.058,0.169 -0.092,0.25 -0.051,0.119 -0.108,0.235 -0.164,0.352 H 850.3 v -5.922 c 3.441,1.298 6.277,2.97 7.831,5.32 z"
   style="fill:#ffffff"
   id="path156"
   inkscape:connector-curvature="0" />
                    </g>
                    <g
   transform="translate(-532.155,69.5387)"
   id="g162">
                        <path
   d="m 849.7,666.11 v 1.887 l -0.075,0.037 c -0.152,0.075 -0.304,0.153 -0.463,0.212 -0.136,0.051 -0.273,0.09 -0.418,0.062 -0.139,-0.026 -0.265,-0.097 -0.383,-0.173 -0.051,-0.034 -0.101,-0.07 -0.151,-0.107 -0.194,-0.151 -0.376,-0.318 -0.576,-0.46 -0.277,-0.198 -0.589,-0.348 -0.92,-0.428 -0.182,-0.043 -0.369,-0.067 -0.557,-0.066 -0.119,0.001 -0.238,0.009 -0.356,0.027 l 0.461,-1.848 z"
   style="fill:#ffffff"
   id="path160"
   inkscape:connector-curvature="0" />
                    </g>
                    <g
   transform="rotate(4.8464726,-263.61108,-5498.876)"
   id="g170">
                        <path
   d="m 849.7,724.3 v -8.189 c -0.117,-0.056 -0.233,-0.113 -0.352,-0.164 -0.108,-0.045 -0.22,-0.092 -0.336,-0.111 -0.321,-0.05 -0.621,0.115 -0.874,0.293 -0.146,0.11 -0.282,0.231 -0.428,0.34 -0.334,0.243 -0.702,0.439 -1.11,0.521 -0.171,0.034 -0.346,0.048 -0.52,0.042 -0.155,-0.005 -0.31,-0.025 -0.461,-0.06 -0.801,-0.183 -1.449,-0.763 -1.855,-1.461 -0.247,-0.422 -0.411,-0.89 -0.498,-1.371 -0.173,-0.967 -0.043,-2.003 0.417,-2.876 0.342,-0.65 0.881,-1.216 1.572,-1.491 0.118,-0.048 0.24,-0.086 0.364,-0.114 0.177,-0.041 0.357,-0.06 0.538,-0.061 0.188,-10e-4 0.375,0.022 0.557,0.066 0.331,0.08 0.643,0.23 0.92,0.427 0.2,0.143 0.382,0.31 0.576,0.46 0.05,0.038 0.1,0.073 0.151,0.108 0.127,0.081 0.263,0.157 0.414,0.178 0.115,0.016 0.225,-0.011 0.333,-0.048 0.179,-0.061 0.349,-0.148 0.517,-0.232 l 0.075,-0.037 v -8.189 h 8.175 c 0.064,-0.133 0.129,-0.265 0.185,-0.401 0.035,-0.087 0.069,-0.178 0.086,-0.27 0.018,-0.095 0.016,-0.194 -10e-4,-0.288 -0.019,-0.104 -0.055,-0.204 -0.101,-0.298 -0.052,-0.109 -0.118,-0.21 -0.187,-0.308 -0.11,-0.147 -0.23,-0.284 -0.34,-0.43 -0.242,-0.335 -0.438,-0.702 -0.519,-1.111 -0.034,-0.171 -0.048,-0.346 -0.042,-0.521 0.005,-0.155 0.025,-0.309 0.059,-0.461 0.183,-0.801 0.762,-1.45 1.459,-1.858 0.422,-0.247 0.889,-0.412 1.369,-0.498 0.966,-0.175 2.001,-0.043 2.872,0.417 0.65,0.343 1.215,0.883 1.489,1.574 0.047,0.119 0.086,0.241 0.114,0.365 0.04,0.177 0.06,0.358 0.061,0.539 0,0.187 -0.023,0.375 -0.066,0.557 -0.08,0.332 -0.23,0.643 -0.427,0.921 -0.142,0.201 -0.309,0.383 -0.459,0.577 -0.037,0.05 -0.073,0.101 -0.107,0.152 -0.076,0.119 -0.147,0.244 -0.174,0.384 -0.024,0.126 0.003,0.245 0.044,0.366 0.06,0.179 0.147,0.348 0.231,0.517 l 0.037,0.075 h 8.175 V 724.3 c -7.311,0 -14.622,0 -21.933,0 z"
   style="fill:#4d4d4d"
   id="path164"
   inkscape:connector-curvature="0" />
                        <path
   d="m 850.3,723.7 h 20.733 v -20.769 h -7.955 c -0.114,-0.243 -0.236,-0.482 -0.348,-0.727 -0.087,-0.198 -0.17,-0.406 -0.19,-0.624 -0.006,-0.065 -0.006,-0.131 0,-0.196 0.038,-0.452 0.334,-0.826 0.611,-1.163 0.064,-0.077 0.128,-0.154 0.19,-0.233 0.037,-0.049 0.073,-0.1 0.108,-0.152 0.118,-0.185 0.214,-0.383 0.27,-0.596 0.036,-0.135 0.056,-0.275 0.059,-0.415 0.003,-0.112 -0.005,-0.224 -0.023,-0.334 -0.108,-0.665 -0.578,-1.208 -1.138,-1.553 -0.354,-0.217 -0.749,-0.365 -1.156,-0.446 -0.922,-0.186 -1.936,-0.05 -2.744,0.446 -0.56,0.345 -1.031,0.888 -1.139,1.553 -0.018,0.112 -0.026,0.226 -0.023,0.34 0.004,0.123 0.021,0.247 0.052,0.367 0.073,0.285 0.22,0.546 0.394,0.782 0.09,0.124 0.192,0.239 0.286,0.359 0.056,0.075 0.056,0.074 0.109,0.15 0.086,0.131 0.166,0.265 0.228,0.41 0.122,0.285 0.173,0.606 0.104,0.911 -0.067,0.297 -0.211,0.572 -0.343,0.844 l -0.131,0.277 H 850.3 v 7.968 c -0.243,0.114 -0.482,0.237 -0.726,0.349 -0.067,0.029 -0.134,0.057 -0.203,0.084 -0.157,0.056 -0.318,0.105 -0.486,0.11 -0.504,0.016 -0.924,-0.312 -1.292,-0.616 -0.089,-0.074 -0.177,-0.149 -0.27,-0.218 -0.05,-0.037 -0.1,-0.072 -0.152,-0.105 -0.186,-0.114 -0.385,-0.204 -0.597,-0.256 -0.136,-0.032 -0.276,-0.05 -0.415,-0.049 -0.137,10e-4 -0.273,0.015 -0.406,0.046 -0.686,0.157 -1.219,0.693 -1.539,1.3 -0.422,0.8 -0.521,1.763 -0.327,2.642 0.09,0.403 0.244,0.793 0.467,1.141 0.354,0.551 0.905,1.005 1.57,1.091 0.109,0.014 0.219,0.019 0.329,0.012 0.123,-0.006 0.245,-0.027 0.363,-0.061 0.269,-0.077 0.514,-0.217 0.737,-0.382 0.123,-0.091 0.238,-0.192 0.358,-0.287 0.075,-0.056 0.074,-0.056 0.15,-0.109 0.131,-0.087 0.265,-0.167 0.409,-0.229 0.285,-0.122 0.605,-0.173 0.91,-0.104 0.297,0.067 0.572,0.212 0.844,0.344 l 0.276,0.131 c 0,2.655 0,5.311 0,7.967 z"
   style="fill:#f7931a"
   id="path166"
   inkscape:connector-curvature="0" />
                        <path
   d="m 858.241,702.931 c -0.124,0.913 -0.366,1.894 -0.736,2.952 -2.271,6.487 -7.156,8.002 -13.713,7.373 0.008,-0.594 0.146,-1.188 0.422,-1.712 0.32,-0.607 0.853,-1.143 1.539,-1.3 0.133,-0.031 0.269,-0.045 0.406,-0.046 0.139,-10e-4 0.279,0.017 0.415,0.049 0.212,0.052 0.411,0.142 0.597,0.256 0.052,0.033 0.102,0.068 0.152,0.105 0.093,0.069 0.181,0.144 0.27,0.218 0.368,0.304 0.788,0.632 1.292,0.616 0.168,-0.005 0.329,-0.054 0.486,-0.11 0.069,-0.027 0.136,-0.055 0.203,-0.084 0.244,-0.112 0.483,-0.235 0.726,-0.349 v -7.968 z"
   style="fill:#ffffff"
   id="path168"
   inkscape:connector-curvature="0" />
                    </g>
                </g>
                <g
   transform="matrix(1.38404,0.104967,-0.104967,1.38404,-796.58,-916.705)"
   id="g176">
                    <path
   d="m 858.259,700.305 c -0.086,-0.108 -0.176,-0.213 -0.258,-0.325 -0.174,-0.236 -0.321,-0.497 -0.394,-0.782 -0.031,-0.12 -0.048,-0.244 -0.052,-0.367 -0.003,-0.114 0.005,-0.228 0.023,-0.34 0.016,-0.099 0.04,-0.195 0.071,-0.288 0.298,0.646 0.505,1.344 0.61,2.102 z"
   style="fill:#ffffff"
   id="path174"
   inkscape:connector-curvature="0" />
                </g>
            </g>
        </g>
    </g>
    <defs
   id="defs189">
        <filter
   id="_Effect1">
            <feGaussianBlur
   in="SourceGraphic"
   stdDeviation="0.614664"
   id="feGaussianBlur183" />
        </filter>
        <filter
   id="_Effect2">
            <feGaussianBlur
   in="SourceGraphic"
   stdDeviation="0.614664"
   id="feGaussianBlur186" />
        </filter>
    </defs>
</svg>